<?xml version="1.0" encoding="UTF-8"?>
<svg version="1.1" xmlns="http://www.w3.org/2000/svg" width="469" height="531">
<path d="M0 0 C1.36199478 -0.00445668 1.36199478 -0.00445668 2.7515046 -0.0090034 C5.78333571 -0.01765021 8.81512715 -0.01919527 11.8469696 -0.02069092 C14.02566613 -0.02532212 16.20436185 -0.03034719 18.38305664 -0.03573608 C24.29688495 -0.04883727 30.21070192 -0.05530117 36.12454247 -0.05974674 C39.82551426 -0.06268255 43.52648299 -0.06678842 47.22745323 -0.07125092 C58.82455566 -0.08492292 70.42165105 -0.09458973 82.01876098 -0.09845281 C83.33846631 -0.0988949 84.65817164 -0.09933699 86.01786804 -0.09979248 C87.00969446 -0.10012463 87.00969446 -0.10012463 88.02155777 -0.10046348 C99.37372294 -0.10464704 110.72579955 -0.12478836 122.07793933 -0.1494534 C132.41967961 -0.17113674 142.76139113 -0.18116071 153.10315388 -0.18249393 C159.26959799 -0.18353765 165.43594548 -0.18935233 171.60236549 -0.20731354 C177.41283737 -0.22390841 183.2231412 -0.22589479 189.03362846 -0.21717453 C191.15304136 -0.2164101 193.27246372 -0.22066736 195.39185333 -0.23063278 C212.6103366 -0.30677127 228.71393834 1.17164917 245.0879364 6.89044189 C246.10847107 7.23897217 247.12900574 7.58750244 248.1804657 7.94659424 C255.88439065 10.65392622 262.76706442 13.93741539 269.7754364 18.14044189 C271.66926586 19.12347871 273.56506968 20.10272229 275.4629364 21.07794189 C300.37959297 34.82877686 320.52482754 61.11457327 328.7754364 88.14044189 C337.97947911 120.23158137 335.70343345 154.29572625 319.4004364 183.76544189 C315.6246595 190.31657617 311.0680209 195.74004549 305.7754364 201.14044189 C304.64162936 202.44534144 303.51622002 203.75759794 302.4004364 205.07794189 C292.93018681 215.85443281 283.16270622 224.96414015 269.9941864 231.08966064 C268.24166279 231.91964102 266.51799076 232.81052806 264.8066864 233.72247314 C245.60014571 243.83233802 224.84650651 249.32727012 203.1269989 249.25396729 C201.41349495 249.25418633 201.41349495 249.25418633 199.66537476 249.25440979 C195.91037562 249.2537162 192.15542682 249.24594979 188.4004364 249.23809814 C185.78870165 249.236232 183.17696655 249.23480902 180.56523132 249.23381042 C174.40665244 249.23071151 168.24809147 249.22251764 162.08952045 249.21246094 C154.3845688 249.20015414 146.67961419 249.19470583 138.97465515 249.18927002 C125.24156831 249.1795513 111.50852051 249.15951562 97.7754364 249.14044189 C97.7754364 220.76044189 97.7754364 192.38044189 97.7754364 163.14044189 C105.26488953 163.10305908 112.75434265 163.06567627 120.4707489 163.02716064 C125.23769825 162.99685674 130.00461136 162.96569294 134.77153015 162.93145752 C142.32473341 162.87729245 149.87786498 162.82617641 157.43119812 162.79400635 C163.52621767 162.76784712 169.62099417 162.72735641 175.71586227 162.67725563 C178.0320265 162.6606719 180.34823269 162.64910509 182.66444778 162.64282799 C204.6482696 162.70371111 204.6482696 162.70371111 225.2754364 155.76544189 C226.3788739 155.20083252 227.4823114 154.63622314 228.6191864 154.05450439 C237.02754779 148.95537435 243.56157265 141.536893 246.2129364 131.89044189 C247.72949771 121.78003314 245.96148995 113.94706697 240.2754364 105.45294189 C232.08379321 94.83081117 219.54309499 89.59229308 206.57813072 87.54429436 C198.23498049 86.65823792 189.83317841 86.85780852 181.45243835 86.86920166 C179.30766097 86.86480844 177.16288528 86.85950413 175.01811218 86.85336304 C170.42001619 86.84191123 165.82196599 86.8364072 161.22385597 86.83548164 C153.94911168 86.83353289 146.67446158 86.81543732 139.39974976 86.79472351 C121.33787118 86.74565344 103.27596725 86.71463712 85.21403503 86.69342041 C71.16011335 86.67689059 57.10627312 86.6540747 43.05240601 86.61039966 C35.82430602 86.58864896 28.59636092 86.58056294 21.36823046 86.5827924 C16.87070825 86.58112372 12.37328699 86.56706399 7.87580109 86.54957962 C5.79454216 86.54398917 3.71326223 86.54348652 1.63200188 86.54851723 C-1.21520718 86.5546768 -4.06178159 86.54239431 -6.90893555 86.52571106 C-7.72665221 86.53192288 -8.54436888 86.53813469 -9.38686484 86.54453474 C-19.58874975 86.4360612 -29.33889121 82.47092424 -36.9745636 75.70294189 C-37.7170636 74.85731689 -38.4595636 74.01169189 -39.2245636 73.14044189 C-40.0701886 72.21231689 -40.9158136 71.28419189 -41.7870636 70.32794189 C-48.07189502 62.62012977 -50.61443596 53.5983632 -50.5370636 43.76544189 C-50.53142395 43.01520752 -50.5257843 42.26497314 -50.51997375 41.49200439 C-50.30234617 31.56301539 -47.03910455 25.09061853 -41.2245636 17.14044189 C-40.3583136 15.84106689 -40.3583136 15.84106689 -39.4745636 14.51544189 C-28.70713193 3.14981958 -15.11280088 -0.01560961 0 0 Z " fill="#029999" transform="translate(114.22456359863281,7.85955810546875)"/>
<path d="M0 0 C64.35 0 128.7 0 195 0 C195 28.38 195 56.76 195 86 C183.12 86.33 171.24 86.66 159 87 C158.67 131.88 158.34 176.76 158 223 C129.95 223 101.9 223 73 223 C73 177.79 73 132.58 73 86 C67.06 86.33 61.12 86.66 55 87 C54.07058594 85.52789062 53.14117187 84.05578125 52.18359375 82.5390625 C50.93501974 80.56762985 49.68631481 78.59628012 48.4375 76.625 C47.82841797 75.65949219 47.21933594 74.69398438 46.59179688 73.69921875 C43.05615986 68.12451066 39.40876804 62.66162153 35.59594727 57.27294922 C33.40170868 54.14791307 31.31084228 50.96402117 29.25 47.75 C28.69119141 46.89148438 28.69119141 46.89148438 28.12109375 46.015625 C25.82451185 42.44496763 23.89439664 38.79401201 22 35 C21.05482868 33.58092663 20.07435963 32.18481853 19.0625 30.8125 C14.83845606 24.90607453 11.01664208 18.75999495 7.17602539 12.60083008 C6.67965576 11.80700928 6.18328613 11.01318848 5.671875 10.1953125 C5.2294043 9.48391113 4.78693359 8.77250977 4.33105469 8.03955078 C3.00275468 5.94175779 3.00275468 5.94175779 1.33300781 3.86279297 C0 2 0 2 0 0 Z " fill="#039999" transform="translate(4,171)"/>
<path d="M0 0 C14.35144755 -0.18711159 28.70270525 -0.32753393 43.05512333 -0.41449738 C49.71976843 -0.45623763 56.38343445 -0.5128466 63.04760742 -0.60351562 C69.47970565 -0.69047889 75.91101578 -0.73828312 82.34365654 -0.75901794 C84.79694463 -0.77379287 87.25018987 -0.80264582 89.70314217 -0.84584045 C93.14166354 -0.90397867 96.57693486 -0.91191035 100.01586914 -0.90820312 C101.53501671 -0.95134644 101.53501671 -0.95134644 103.08485413 -0.99536133 C107.18051662 -0.94762756 109.90114772 -0.88794747 113.1577282 1.74359131 C114.9377583 3.75277988 116.49103685 5.78257605 118 8 C118.71027344 8.92425781 119.42054688 9.84851563 120.15234375 10.80078125 C120.74144531 11.62964844 121.33054687 12.45851563 121.9375 13.3125 C122.6078125 14.24578125 123.278125 15.1790625 123.96875 16.140625 C125.30609642 18.02319727 126.63953825 19.90855037 127.96875 21.796875 C131.19238545 26.32531528 134.46663676 30.61101132 138.25 34.6875 C142.2745814 39.05684449 145.91783127 43.64263759 149.5 48.375 C150.02883789 49.06553467 150.55767578 49.75606934 151.10253906 50.4675293 C151.84068848 51.45426636 151.84068848 51.45426636 152.59375 52.4609375 C153.25407227 53.33951416 153.25407227 53.33951416 153.92773438 54.23583984 C155 56 155 56 155.40039062 58.09619141 C155.81637719 60.18195539 155.81637719 60.18195539 157.88671875 61.03833008 C158.93279297 61.51435669 158.93279297 61.51435669 160 62 C161.45703125 63.54956055 161.45703125 63.54956055 162.8125 65.38671875 C163.32425781 66.06992187 163.83601562 66.753125 164.36328125 67.45703125 C164.90339844 68.19308594 165.44351563 68.92914063 166 69.6875 C167.16519098 71.24459495 168.33188762 72.8005642 169.5 74.35546875 C170.08652344 75.13841309 170.67304688 75.92135742 171.27734375 76.72802734 C173.7871028 80.03809221 176.38671689 83.2714674 179 86.5 C183.3182243 91.85104557 187.52787311 97.2748321 191.6875 102.75 C196.02229046 108.45468145 200.4405257 114.05722887 205.0078125 119.578125 C219 136.58823529 219 136.58823529 219 140 C204.88350271 140.39863298 190.7678875 140.69648243 176.64690113 140.88080692 C170.08853494 140.96930791 163.53396443 141.08918694 156.9777832 141.2824707 C150.64262236 141.46805618 144.31109525 141.56899925 137.97342491 141.61291313 C135.56371532 141.64417649 133.15419132 141.7052384 130.74604225 141.79741096 C112.40347337 142.47115005 112.40347337 142.47115005 106.74688339 138.36408615 C102.81105565 134.42368971 99.95806974 129.97807874 97.25394249 125.13648796 C95.3095029 121.82351962 92.92547979 118.90596985 90.5 115.9375 C89.60393056 114.80329688 88.70921917 113.66801834 87.81640625 112.53125 C84.17785239 107.95042055 80.46931599 103.42654896 76.77001953 98.89477539 C72.1487658 93.21823685 67.68407146 87.43561698 63.24023438 81.61962891 C57.25114731 73.79844709 51.15914554 66.11638257 44.6875 58.6875 C40.92951526 54.37069612 37.5475042 50.057889 34.484375 45.2109375 C30.42082826 39.15839156 25.50940698 33.64978805 20.625 28.25 C17.32817678 24.52282224 14.37962364 20.57061047 11.4375 16.5625 C10.76678467 15.64936035 10.76678467 15.64936035 10.08251953 14.71777344 C7.58515712 11.28150496 5.17899303 7.79598268 2.82836914 4.25756836 C2.03022545 3.05710121 2.03022545 3.05710121 1.21595764 1.8323822 C0.81469162 1.22769608 0.4134256 0.62300995 0 0 Z " fill="#049999" transform="translate(226,264)"/>
<path d="M0 0 C1.93359375 0.00966797 1.93359375 0.00966797 3.90625 0.01953125 C5.25260692 0.03623787 6.59896109 0.05316771 7.9453125 0.0703125 C9.31509767 0.08035586 10.68488992 0.08947933 12.0546875 0.09765625 C15.39341006 0.12116838 18.73177011 0.1540332 22.0703125 0.1953125 C21.52273542 5.38526468 20.32672667 9.49132251 18.2265625 14.32421875 C17.94147827 14.9873558 17.65639404 15.65049286 17.3626709 16.33372498 C16.75389861 17.74741875 16.14137757 19.15950327 15.52539062 20.57006836 C14.23319034 23.5300394 12.96035016 26.49820776 11.68603516 29.46591187 C10.7353359 31.67879743 9.7817665 33.89043191 8.828125 36.10205078 C-2.2723877 57.9661912 -2.2723877 57.9661912 -7.9296875 81.1953125 C-1.39491563 75.3866264 1.33197447 67.83806332 4.49609375 59.84765625 C5.13473985 58.25584903 5.7734126 56.66405251 6.41210938 55.07226562 C7.39376467 52.61386568 8.3740129 50.15491222 9.35327148 47.69555664 C25.96956872 6.02660787 25.96956872 6.02660787 37.0703125 1.1953125 C40.40317345 0.15732992 43.44852458 0.07989521 46.9296875 0.09765625 C48.04472656 0.10087891 49.15976562 0.10410156 50.30859375 0.10742188 C51.46746094 0.11580078 52.62632812 0.12417969 53.8203125 0.1328125 C54.99464844 0.13732422 56.16898437 0.14183594 57.37890625 0.14648438 C60.27609322 0.15826156 63.17317704 0.17470924 66.0703125 0.1953125 C65.5395352 6.84399655 63.17213847 12.44594376 60.6328125 18.5703125 C59.71837891 20.81104651 58.80432723 23.05193641 57.890625 25.29296875 C57.42172852 26.43652832 56.95283203 27.58008789 56.46972656 28.75830078 C55.12490467 32.06123215 53.80668775 35.37322658 52.5 38.69140625 C31.39013103 92.28179961 31.39013103 92.28179961 9.3046875 102.8828125 C4.44981311 104.85290645 0.21515763 105.31982796 -5.00512695 105.30883789 C-6.20599442 105.30876236 -7.40686188 105.30868683 -8.64411926 105.30860901 C-9.93073959 105.30344772 -11.21735992 105.29828644 -12.54296875 105.29296875 C-13.88103686 105.29110206 -15.21910565 105.28967934 -16.55717468 105.28868103 C-20.0670462 105.28487564 -23.57687589 105.27506238 -27.08673096 105.26397705 C-30.67304926 105.25372027 -34.25937436 105.24917429 -37.84570312 105.24414062 C-44.87371503 105.23343822 -51.90169925 105.21638571 -58.9296875 105.1953125 C-60.36508893 100.71105905 -58.83518544 97.7461831 -57.02734375 93.59765625 C-56.5582811 92.48480507 -56.5582811 92.48480507 -56.07974243 91.34947205 C-55.06101084 88.93933092 -54.02663387 86.53624504 -52.9921875 84.1328125 C-52.2883558 82.47394209 -51.58563943 80.81459803 -50.8840332 79.15478516 C-48.91179724 74.49622333 -46.92251175 69.84509555 -44.9296875 65.1953125 C-43.48825041 61.82197122 -42.04987112 58.44738018 -40.6171875 55.0703125 C-40.32158936 54.37736084 -40.02599121 53.68440918 -39.72143555 52.97045898 C-37.86583504 48.57205463 -36.1323479 44.13626806 -34.44140625 39.671875 C-34.00417236 38.5183252 -33.56693848 37.36477539 -33.11645508 36.17626953 C-32.2710433 33.93285224 -31.43305821 31.68661523 -30.60424805 29.43701172 C-26.71956818 19.0944426 -22.65788422 8.3290836 -12.9296875 2.1953125 C-8.47212894 0.42607534 -4.78163811 -0.04231538 0 0 Z " fill="#04959A" transform="translate(383.9296875,411.8046875)"/>
<path d="M0 0 C2.87084495 -0.2861598 5.52504289 -0.37812186 8.39697266 -0.34057617 C9.69951241 -0.34123329 9.69951241 -0.34123329 11.02836609 -0.34190369 C13.90715794 -0.33980867 16.78537202 -0.3164442 19.6640625 -0.29296875 C21.6566028 -0.28737533 23.64914722 -0.28310403 25.64169312 -0.28010559 C30.89269347 -0.26863684 36.14344592 -0.23915221 41.39434814 -0.20599365 C46.74984381 -0.17533647 52.10537943 -0.16160957 57.4609375 -0.14648438 C67.97406741 -0.11428445 78.48701311 -0.06306362 89 0 C88.38268681 4.6654268 87.55797415 8.65753679 85.796875 13.02734375 C85.34763672 14.1551123 84.89839844 15.28288086 84.43554688 16.44482422 C83.96181641 17.61803223 83.48808594 18.79124023 83 20 C82.06681342 22.37595079 81.13453571 24.75225873 80.203125 27.12890625 C77.17775237 34.76991802 74.10365696 42.3904745 71 50 C70.57605957 51.04462402 70.15211914 52.08924805 69.71533203 53.16552734 C64.53998282 65.78378671 59.3175377 78.22069119 46 84 C40.60870811 85.22510729 35.28494157 85.1281087 29.7890625 85.09765625 C28.82092621 85.0962413 27.85278992 85.09482635 26.85531616 85.09336853 C23.77851201 85.08779365 20.70178197 85.07524577 17.625 85.0625 C15.53255314 85.05748175 13.44010513 85.05291941 11.34765625 85.04882812 C6.2317425 85.03783245 1.11588379 85.02058515 -4 85 C-4.29801514 85.94472168 -4.59603027 86.88944336 -4.90307617 87.86279297 C-7.08398611 94.10020511 -12.55815132 99.37210088 -18 103 C-22.92705621 105.04988965 -27.14292117 105.24799643 -32.375 105.125 C-33.11105469 105.11597656 -33.84710938 105.10695313 -34.60546875 105.09765625 C-36.4037888 105.07430144 -38.20193911 105.03843836 -40 105 C-40.90830724 102.52895299 -41.12595894 101.3471704 -40.21484375 98.8359375 C-39.79332031 98.02382813 -39.37179688 97.21171875 -38.9375 96.375 C-36.63978953 91.61679847 -34.94321712 86.90103492 -33.375 81.875 C-23.84133616 51.84133616 -23.84133616 51.84133616 -18 46 C-16.58919569 45.89856562 -15.17346581 45.86433031 -13.7590332 45.8581543 C-12.40676384 45.84760262 -12.40676384 45.84760262 -11.0271759 45.83683777 C-9.55386055 45.83059135 -9.55386055 45.83059135 -8.05078125 45.82421875 C-5.98501595 45.80101186 -3.91926072 45.77689417 -1.85351562 45.75195312 C1.41404867 45.71688132 4.68124531 45.68752575 7.94897461 45.67407227 C11.0953475 45.65857054 14.24063376 45.61833366 17.38671875 45.57421875 C18.84485237 45.57708138 18.84485237 45.57708138 20.33244324 45.58000183 C26.15025539 45.475408 29.60451323 44.94193802 34 41 C34.33 40.01 34.66 39.02 35 38 C19.16 37.67 3.32 37.34 -13 37 C-14.14855409 33.55433773 -13.90306575 33.13483895 -12.48828125 29.97265625 C-12.1442627 29.18568359 -11.80024414 28.39871094 -11.44580078 27.58789062 C-11.07181152 26.75451172 -10.69782227 25.92113281 -10.3125 25.0625 C-7.45673773 18.52583981 -4.86493727 12.07904599 -2.7890625 5.25 C-2 3 -2 3 0 0 Z " fill="#03959A" transform="translate(269,412)"/>
<path d="M0 0 C0.73283203 0.12632813 1.46566406 0.25265625 2.22070312 0.3828125 C6.13627872 1.08895778 9.6642992 1.96999766 13.3125 3.625 C13.3125 4.285 13.3125 4.945 13.3125 5.625 C14.1375 5.79 14.9625 5.955 15.8125 6.125 C21.67145189 8.63597938 25.80944327 13.37041491 29.3125 18.625 C29.3125 19.615 29.3125 20.605 29.3125 21.625 C29.9725 21.625 30.6325 21.625 31.3125 21.625 C36.34497753 32.43134685 37.23200647 44.27906023 33.3125 55.625 C31.23980039 60.1535346 28.7345395 64.01733608 25.75 68 C24.96496094 69.05960937 24.17992187 70.11921875 23.37109375 71.2109375 C22.69175781 72.00757812 22.01242188 72.80421875 21.3125 73.625 C20.6525 73.625 19.9925 73.625 19.3125 73.625 C19.3125 74.285 19.3125 74.945 19.3125 75.625 C13.45030706 78.77321473 7.73605105 80.90986817 1.3125 82.625 C0.69246094 82.81191406 0.07242188 82.99882813 -0.56640625 83.19140625 C-13.11424114 85.75643327 -24.25330434 82.49282019 -34.6875 75.625 C-37.4375 73.1875 -37.4375 73.1875 -39.6875 70.625 C-40.533125 69.696875 -41.37875 68.76875 -42.25 67.8125 C-48.53483143 60.10468787 -51.07737236 51.08292131 -51 41.25 C-50.99436035 40.49976563 -50.9887207 39.74953125 -50.98291016 38.9765625 C-50.76528258 29.0475735 -47.50204095 22.57517663 -41.6875 14.625 C-40.82125 13.325625 -40.82125 13.325625 -39.9375 12 C-28.67726674 0.11419822 -15.56220814 -2.89270714 0 0 Z " fill="#EB0202" transform="translate(114.6875,10.375)"/>
<path d="M0 0 C11.55230802 -0.06943698 23.10456659 -0.12277921 34.6570406 -0.15543652 C40.02102835 -0.17110849 45.38487358 -0.19237475 50.7487793 -0.22631836 C55.92292372 -0.25885712 61.09693084 -0.27684147 66.27116966 -0.28463173 C68.24759267 -0.2901851 70.22400796 -0.30102917 72.2003727 -0.31719017 C74.96358241 -0.33889156 77.72622106 -0.34196999 80.48950195 -0.34057617 C81.31093185 -0.351362 82.13236176 -0.36214783 82.97868347 -0.3732605 C88.59039919 -0.34252587 88.59039919 -0.34252587 90.67122173 1.39754772 C93.60208027 4.93204332 93.43608969 8.2687302 93.39257812 12.71923828 C92.63657173 19.0371574 89.83256179 24.68658677 87.25 30.4375 C86.16400812 32.91197318 85.08894451 35.39110196 84.015625 37.87109375 C83.49581055 39.06879395 82.97599609 40.26649414 82.44042969 41.50048828 C80.70627725 45.71359692 79.2957356 49.98729778 77.90332031 54.32250977 C73.99919617 65.89454477 68.35987698 76.38203798 57.8125 83 C54.96243809 84.01335535 52.98667749 84.08031402 50 84 C50.81127079 86.12546959 51.62405398 88.25036195 52.4375 90.375 C52.88996094 91.55835938 53.34242187 92.74171875 53.80859375 93.9609375 C54.89271912 96.86036193 54.89271912 96.86036193 56 99 C56.039992 100.99960012 56.04346799 103.00047242 56 105 C49.44730065 104.72697086 45.73316402 102.45881786 41 98 C34.82124232 90.65497079 31.25512713 82.26001311 27.75 73.4375 C27.23024697 72.16166874 26.70941776 70.88627536 26.1875 69.61132812 C18.48617098 50.69456357 18.48617098 50.69456357 20 46 C20.93271729 46.00112793 21.86543457 46.00225586 22.82641602 46.00341797 C26.31434947 45.99344439 29.79993699 45.9567343 33.28735352 45.90234375 C34.79149529 45.88426629 36.29580201 45.87660022 37.80004883 45.87988281 C47.76806125 46.20871938 47.76806125 46.20871938 56.46484375 42.0703125 C58.94050808 39.30617983 58.94050808 39.30617983 60 37 C58.46460571 37.0314209 58.46460571 37.0314209 56.89819336 37.06347656 C53.07590904 37.13624792 49.25368513 37.18193341 45.4309082 37.21972656 C43.78106363 37.23975797 42.1312893 37.26699142 40.48168945 37.30175781 C38.10089726 37.35065357 35.721049 37.3730528 33.33984375 37.390625 C32.61039047 37.41127014 31.88093719 37.43191528 31.12937927 37.45318604 C25.65150052 37.45554965 22.56702448 36.01590526 18 33 C17.36191406 32.62359375 16.72382812 32.2471875 16.06640625 31.859375 C9.30228641 26.86973855 6.35269729 18.44735464 3 11 C2.70287109 10.36562012 2.40574219 9.73124023 2.09960938 9.07763672 C0.57502288 5.7294377 0 3.76105238 0 0 Z " fill="#04949A" transform="translate(67,412)"/>
<path d="M0 0 C0.76136261 -0.00014603 1.52272522 -0.00029205 2.30715942 -0.0004425 C4.8177579 0.00025284 7.32828171 0.00802752 9.83886719 0.01586914 C11.58192911 0.01773466 13.32499156 0.01915793 15.0680542 0.02015686 C19.65146334 0.02397145 24.2348407 0.03379272 28.8182373 0.04486084 C33.49698456 0.05509769 38.17573696 0.05965936 42.85449219 0.06469727 C52.03158947 0.07541593 61.20866318 0.09247967 70.38574219 0.11352539 C69.79482544 3.84442051 69.13245813 7.1830577 67.71386719 10.68774414 C67.21113281 11.9378125 67.21113281 11.9378125 66.69824219 13.21313477 C66.34761719 14.06713867 65.99699219 14.92114258 65.63574219 15.80102539 C65.30058594 16.63569336 64.96542969 17.47036133 64.62011719 18.33032227 C62.05010286 24.67261141 59.2559139 30.90199298 56.38574219 37.11352539 C26.38282821 38.63383851 -3.59622153 37.80440042 -33.61425781 37.11352539 C-31.26202629 24.83195137 -24.81239429 10.05786632 -14.42675781 2.61352539 C-9.61790121 0.04880187 -5.37994409 -0.02705317 0 0 Z " fill="#03949A" transform="translate(191.6142578125,411.886474609375)"/>
<path d="M0 0 C1.04590805 0.00222061 2.0918161 0.00444122 3.16941833 0.00672913 C4.35056717 0.00680466 5.531716 0.00688019 6.74865723 0.00695801 C8.03404892 0.01211929 9.31944061 0.01728058 10.64378357 0.02259827 C12.60601112 0.02472069 12.60601112 0.02472069 14.60787964 0.02688599 C18.09150591 0.03071042 21.57509071 0.04054005 25.05870056 0.05158997 C28.6111444 0.06180569 32.16359491 0.06638395 35.71604919 0.07142639 C42.69067564 0.0821624 49.66527449 0.09923792 56.63987732 0.12025452 C55.98870603 5.23654609 54.9223776 9.23670292 52.76487732 13.93275452 C51.01464636 17.8351858 49.36932744 21.66606656 48.26487732 25.80775452 C45.08653602 37.26500878 39.45098057 48.29527219 34.63987732 59.12025452 C25.06987732 59.12025452 15.49987732 59.12025452 5.63987732 59.12025452 C4.44853219 54.35487402 5.6312076 52.1944132 7.63987732 47.99525452 C8.71594162 45.71789429 9.70089046 43.46185299 10.63987732 41.12025452 C10.30987732 40.46025452 9.97987732 39.80025452 9.63987732 39.12025452 C8.99437927 39.12549133 8.34888123 39.13072815 7.68382263 39.13612366 C4.75251747 39.15694109 1.82122789 39.16992986 -1.11012268 39.18275452 C-2.12590393 39.19113342 -3.14168518 39.19951233 -4.18824768 39.20814514 C-5.16793518 39.2113678 -6.14762268 39.21459045 -7.15699768 39.21791077 C-8.0577301 39.22314758 -8.95846252 39.2283844 -9.88648987 39.23377991 C-12.19402072 39.12787763 -14.15146673 38.77158265 -16.36012268 38.12025452 C-15.86059587 30.96037017 -13.04779138 24.70356969 -10.36012268 18.12025452 C-9.74292736 16.59161184 -9.12574023 15.06296586 -8.50856018 13.53431702 C-7.87663025 11.97927057 -7.24382641 10.42457896 -6.61012268 8.87025452 C-6.30445374 8.11889221 -5.99878479 7.36752991 -5.68385315 6.59339905 C-3.03183358 0.15447997 -3.03183358 0.15447997 0 0 Z " fill="#03949A" transform="translate(156.36012268066406,457.87974548339844)"/>
<path d="M0 0 C0.90105469 0.00902344 1.80210937 0.01804687 2.73046875 0.02734375 C3.41753906 0.03894531 4.10460937 0.05054688 4.8125 0.0625 C4.28629869 6.30901872 2.25109428 11.37505573 -0.3125 17.0625 C-0.67859375 17.92617188 -1.0446875 18.78984375 -1.421875 19.6796875 C-4.94151832 27.55698446 -9.95977825 33.73471533 -17.921875 37.41796875 C-22.27634781 38.65674119 -26.70885285 38.35888106 -31.1875 38.0625 C-31.58481569 32.84874509 -30.24288196 28.92268129 -28.125 24.25 C-27.80772949 23.54439941 -27.49045898 22.83879883 -27.16357422 22.11181641 C-22.78164194 12.69163674 -17.42611217 6.0757004 -8.1875 1.0625 C-5.17259443 0.05753148 -3.14568308 -0.04085303 0 0 Z " fill="#059398" transform="translate(238.1875,457.9375)"/>
<path d="M0 0 C73.92 0 147.84 0 224 0 C224 0.66 224 1.32 224 2 C157.34 2.33 90.68 2.66 22 3 C22 3.66 22 4.32 22 5 C22.99 5 23.98 5 25 5 C25 5.66 25 6.32 25 7 C25.66 7 26.32 7 27 7 C27.33 7.99 27.66 8.98 28 10 C26.35 9.34 24.7 8.68 23 8 C23 7.34 23 6.68 23 6 C19.95325046 5.3601826 16.90088168 4.8122562 13.828125 4.31640625 C13.08175781 4.19330078 12.33539063 4.07019531 11.56640625 3.94335938 C10.0075343 3.68705244 8.44759464 3.43716561 6.88671875 3.19335938 C4.9121793 2.86198014 2.95363413 2.43810036 1 2 C0.67 1.34 0.34 0.68 0 0 Z " fill="#5BB6B4" transform="translate(105,8)"/>
<path d="M0 0 C3.46920314 -0.01480141 6.68948485 -0.00937573 10.06855524 0.81838024 C10.78269586 0.98982555 11.49683649 1.16127086 12.23261774 1.33791149 C12.94933649 1.5196693 13.66605524 1.70142711 14.40449274 1.88869274 C15.49117242 2.14972789 15.49117242 2.14972789 16.59980524 2.41603649 C20.73366696 3.42703528 24.75926206 4.6059779 28.77949274 6.01369274 C28.77949274 6.34369274 28.77949274 6.67369274 28.77949274 7.01369274 C22.09503105 7.24823525 16.9765669 6.07443966 10.60604513 3.96078479 C6.31557293 2.89887012 2.51099494 2.72433721 -1.88284552 2.73521984 C-2.73003828 2.72942743 -3.57723104 2.72363503 -4.45009631 2.7176671 C-7.27521708 2.70072708 -10.10017388 2.69779578 -12.92534125 2.69484508 C-14.95590865 2.68554277 -16.98647224 2.67537365 -19.01703131 2.6644038 C-24.52056542 2.63712397 -30.02407396 2.62196031 -35.52765787 2.60897577 C-41.28256834 2.59333646 -47.03742666 2.56654876 -52.79229987 2.54094493 C-63.68599866 2.49417138 -74.57970728 2.45742034 -85.47345513 2.42427206 C-97.87728314 2.38604066 -110.28105875 2.33663314 -122.68484259 2.2862879 C-148.19669197 2.18298919 -173.70857502 2.09372204 -199.22050726 2.01369274 C-198.70488226 2.96244274 -198.18925726 3.91119274 -197.65800726 4.88869274 C-197.18363226 5.91994274 -196.70925726 6.95119274 -196.22050726 8.01369274 C-196.55050726 8.67369274 -196.88050726 9.33369274 -197.22050726 10.01369274 C-197.88050726 8.69369274 -198.54050726 7.37369274 -199.22050726 6.01369274 C-199.88050726 6.01369274 -200.54050726 6.01369274 -201.22050726 6.01369274 C-201.22050726 5.35369274 -201.22050726 4.69369274 -201.22050726 4.01369274 C-202.21050726 4.01369274 -203.20050726 4.01369274 -204.22050726 4.01369274 C-204.22050726 3.35369274 -204.22050726 2.69369274 -204.22050726 2.01369274 C-200.55517534 0.79191543 -197.17581719 0.86038616 -193.35876715 0.85547435 C-192.14444865 0.84806739 -192.14444865 0.84806739 -190.90559846 0.84051079 C-188.18350311 0.82511082 -185.4614314 0.81676813 -182.73930609 0.80837047 C-180.79127541 0.79879331 -178.8432468 0.78878333 -176.8952204 0.77837169 C-171.59545648 0.75128423 -166.29568364 0.73029165 -160.99588859 0.71036971 C-155.45157892 0.68851022 -149.90729668 0.66111603 -144.3630091 0.63431346 C-133.85057073 0.58434499 -123.33811697 0.53943151 -112.82564861 0.4962911 C-100.89260666 0.44706381 -88.9595936 0.39204681 -77.02657914 0.33661151 C-59.43252581 0.25504319 -41.83846282 0.17577663 -24.24437582 0.1018008 C-22.34007809 0.09379064 -20.43578057 0.0857285 -18.53148329 0.0776099 C-15.92671144 0.06653611 -13.32193873 0.05569268 -10.71716559 0.04492748 C-9.96821597 0.04171865 -9.21926635 0.03850982 -8.44762129 0.03520375 C-7.05193542 0.02954681 -5.65624656 0.02457278 -4.26055551 0.02038646 C-2.84036172 0.01572658 -1.42017443 0.00875749 0 0 Z " fill="#0B9496" transform="translate(331.22050726413727,8.986307263374329)"/>
<path d="M0 0 C2 3 2 3 1.765625 5.30859375 C-1.52018678 16.85922803 -6.63930741 28.27861483 -12 39 C-21.57 39 -31.14 39 -41 39 C-42.19134512 34.2346195 -41.00866972 32.07415869 -39 27.875 C-37.9239357 25.59763977 -36.93898686 23.34159848 -36 21 C-36.33 20.34 -36.66 19.68 -37 19 C-37.99 18.67 -38.98 18.34 -40 18 C-40 17.34 -40 16.68 -40 16 C-38.02 15.67 -36.04 15.34 -34 15 C-32.94828764 18.15513708 -33.01506581 19.01823272 -33.75 22.125 C-33.90984375 22.82882812 -34.0696875 23.53265625 -34.234375 24.2578125 C-35.34104417 28.22149494 -36.67321053 32.10533331 -38 36 C-34.39520054 35.89020915 -30.79145321 35.75955955 -27.1875 35.625 C-26.16333984 35.5940625 -25.13917969 35.563125 -24.08398438 35.53125 C-22.60961914 35.47324219 -22.60961914 35.47324219 -21.10546875 35.4140625 C-20.19949951 35.3826416 -19.29353027 35.3512207 -18.36010742 35.31884766 C-15.73474608 35.13972081 -15.73474608 35.13972081 -13 33 C-11.78715124 29.94570927 -11.78715124 29.94570927 -11 27 C-10.34 27 -9.68 27 -9 27 C-9.061875 26.2575 -9.12375 25.515 -9.1875 24.75 C-9 22 -9 22 -7.625 20.25 C-5.4887347 17.2920942 -5.09146568 14.4726801 -4.4296875 10.92578125 C-4 9 -4 9 -3 8 C-2.855625 6.845 -2.71125 5.69 -2.5625 4.5 C-2.2840625 2.7675 -2.2840625 2.7675 -2 1 C-1.34 0.67 -0.68 0.34 0 0 Z " fill="#4AA5A7" transform="translate(203,478)"/>
<path d="M0 0 C0 0.99 0 1.98 0 3 C-0.66 3.66 -1.32 4.32 -2 5 C60.04 5.33 122.08 5.66 186 6 C186 6.33 186 6.66 186 7 C118.35 7 50.7 7 -19 7 C-15.89085936 5.44542968 -13.35139546 4.43244494 -10.0625 3.5 C-6.62081819 2.49850618 -3.29436134 1.42755658 0 0 Z " fill="#3DA5A2" transform="translate(131,87)"/>
<path d="M0 0 C64.02 0 128.04 0 194 0 C194 0.33 194 0.66 194 1 C131.3 1 68.6 1 4 1 C5.11179163 4.33537489 6.47411298 5.63707344 9 8 C8.34 8 7.68 8 7 8 C6.67 8.99 6.34 9.98 6 11 C4.9944239 9.54550599 3.99569565 8.08627557 3 6.625 C2.443125 5.81289062 1.88625 5.00078125 1.3125 4.1640625 C0 2 0 2 0 0 Z " fill="#4BA3A1" transform="translate(4,171)"/>
<path d="M0 0 C-0.8055863 7.73362853 -3.39071877 14.12517861 -7 21 C-7.99 21 -8.98 21 -10 21 C-9.67 22.32 -9.34 23.64 -9 25 C-9.33 25 -9.66 25 -10 25 C-10.10957031 25.73605469 -10.21914062 26.47210938 -10.33203125 27.23046875 C-11.18309072 32.46829003 -11.91657021 36.57594856 -15 41 C-15.36696384 42.32447213 -15.70571667 43.65750746 -16 45 C-13.72844502 44.91297874 -11.45769257 44.80480478 -9.1875 44.6875 C-7.29064453 44.60048828 -7.29064453 44.60048828 -5.35546875 44.51171875 C-1.88046571 43.98177067 -1.11622676 43.62243383 1 41 C1.66 41 2.32 41 3 41 C3 42.65 3 44.3 3 46 C-1.97011673 47.99118241 -6.12333135 48.24845695 -11.375 48.125 C-12.47908203 48.11146484 -12.47908203 48.11146484 -13.60546875 48.09765625 C-15.4037888 48.07430144 -17.20193911 48.03843836 -19 48 C-19.90830724 45.52895299 -20.12595894 44.3471704 -19.21484375 41.8359375 C-18.58255859 40.61777344 -18.58255859 40.61777344 -17.9375 39.375 C-15.53669032 34.40757887 -13.73982787 29.42825213 -12.0625 24.1875 C-9.50707046 16.28701212 -6.79911232 8.40369178 -3 1 C-1 0 -1 0 0 0 Z " fill="#158A8F" transform="translate(248,469)"/>
<path d="M0 0 C11.55230802 -0.06943698 23.10456659 -0.12277921 34.6570406 -0.15543652 C40.02102835 -0.17110849 45.38487358 -0.19237475 50.7487793 -0.22631836 C55.92292372 -0.25885712 61.09693084 -0.27684147 66.27116966 -0.28463173 C68.24759267 -0.2901851 70.22400796 -0.30102917 72.2003727 -0.31719017 C74.96358241 -0.33889156 77.72622106 -0.34196999 80.48950195 -0.34057617 C81.31093185 -0.351362 82.13236176 -0.36214783 82.97868347 -0.3732605 C88.61008935 -0.34241803 88.61008935 -0.34241803 90.73372173 1.52254772 C91.15159356 2.01010697 91.56946539 2.49766623 92 3 C91.67 3.99 91.34 4.98 91 6 C90.505 5.01 90.505 5.01 90 4 C88.68 4 87.36 4 86 4 C86 3.34 86 2.68 86 2 C85.40272598 2.00261841 84.80545197 2.00523682 84.19007874 2.00793457 C66.26695788 2.07481465 48.35713457 1.83461063 30.4375 1.5 C27.75716964 1.45136448 25.07682724 1.40340965 22.39648438 1.35546875 C15.93094535 1.23931966 9.46545569 1.12069459 3 1 C3.495 2.0725 3.99 3.145 4.5 4.25 C5.88653911 7.25416808 6 8.45934895 6 12 C6.99 12.33 7.98 12.66 9 13 C10.0625 16.1875 10.0625 16.1875 11 20 C11.391875 21.093125 11.78375 22.18625 12.1875 23.3125 C13 26 13 26 12 28 C0 9.53191489 0 9.53191489 0 0 Z " fill="#319094" transform="translate(67,412)"/>
<path d="M0 0 C0 3.15084005 -0.45473667 4.33871316 -2 7 C-7.13861548 12.13861548 -17.12785913 11.10820086 -23.99267578 11.13623047 C-27.99598789 11.11992514 -31.99726839 11.07119483 -36 11 C-35.70333089 12.44513247 -35.39995364 13.88888893 -35.09375 15.33203125 C-34.92552734 16.13616455 -34.75730469 16.94029785 -34.58398438 17.76879883 C-33.8584462 20.54082785 -32.55283862 22.60604046 -31 25 C-29.31534561 29.16730297 -28.78630132 32.51232782 -29 37 C-32.67442732 33.32557268 -33.88383128 27.92549079 -35.6875 23.125 C-36.11611328 22.02285156 -36.54472656 20.92070312 -36.98632812 19.78515625 C-37.58670898 18.19380859 -37.58670898 18.19380859 -38.19921875 16.5703125 C-38.56877686 15.59852051 -38.93833496 14.62672852 -39.3190918 13.62548828 C-40.02398284 10.90752546 -39.96279661 9.59636583 -39 7 C-38.06728271 7.00112793 -37.13456543 7.00225586 -36.17358398 7.00341797 C-32.68565053 6.99344439 -29.20006301 6.9567343 -25.71264648 6.90234375 C-24.20850471 6.88426629 -22.70419799 6.87660022 -21.19995117 6.87988281 C-11.17440941 7.20585997 -11.17440941 7.20585997 -2.47265625 2.9453125 C-1.65667969 1.97335937 -0.84070313 1.00140625 0 0 Z " fill="#0E8F95" transform="translate(126,451)"/>
<path d="M0 0 C0 3.21812786 -0.05758039 4.4664092 -2 7 C-7.56108292 8.11914288 -13.10813569 8.19329014 -18.765625 8.28125 C-19.68083923 8.29965942 -20.59605347 8.31806885 -21.53900146 8.33703613 C-25.43051144 8.41528332 -29.32217692 8.48364463 -33.21386719 8.55224609 C-36.06454046 8.60394716 -38.91506538 8.66117057 -41.765625 8.71875 C-42.64688049 8.73232544 -43.52813599 8.74590088 -44.43609619 8.7598877 C-45.25414734 8.77660522 -46.07219849 8.79332275 -46.91503906 8.81054688 C-47.99256439 8.82933899 -47.99256439 8.82933899 -49.09185791 8.84851074 C-51.22274005 8.94082711 -51.22274005 8.94082711 -54 10 C-53.34 8.35 -52.68 6.7 -52 5 C-51.43703217 4.99635437 -50.87406433 4.99270874 -50.29403687 4.98895264 C-44.42103166 4.94705917 -38.54880298 4.87766601 -32.67626953 4.79248047 C-30.48624447 4.7642994 -28.29611823 4.74307066 -26.10595703 4.72900391 C-22.95292473 4.70753523 -19.80110515 4.66086325 -16.6484375 4.609375 C-15.67321136 4.60814636 -14.69798523 4.60691772 -13.69320679 4.60565186 C-7.83658985 4.48019365 -4.52268414 3.80090878 0 0 Z " fill="#159195" transform="translate(303,453)"/>
<path d="M0 0 C2.87084495 -0.2861598 5.52504289 -0.37812186 8.39697266 -0.34057617 C9.69951241 -0.34123329 9.69951241 -0.34123329 11.02836609 -0.34190369 C13.90715794 -0.33980867 16.78537202 -0.3164442 19.6640625 -0.29296875 C21.6566028 -0.28737533 23.64914722 -0.28310403 25.64169312 -0.28010559 C30.89269347 -0.26863684 36.14344592 -0.23915221 41.39434814 -0.20599365 C46.74984381 -0.17533647 52.10537943 -0.16160957 57.4609375 -0.14648438 C67.97406741 -0.11428445 78.48701311 -0.06306362 89 0 C88.34962819 5.01230325 87.32617861 9.24001731 85.4375 13.9375 C84.98246094 15.08089844 84.52742188 16.22429687 84.05859375 17.40234375 C83.53458984 18.68818359 83.53458984 18.68818359 83 20 C82.67 20 82.34 20 82 20 C82 17.03 82 14.06 82 11 C82.66 11 83.32 11 84 11 C84.144375 9.88625 84.28875 8.7725 84.4375 7.625 C85 4 85 4 86 2 C58.28 1.67 30.56 1.34 2 1 C1.67 3.31 1.34 5.62 1 8 C-0.32 8 -1.64 8 -3 8 C-2.45276317 4.62537285 -1.9451 2.91765 0 0 Z " fill="#2E9090" transform="translate(269,412)"/>
<path d="M0 0 C0.33 1.32 0.66 2.64 1 4 C8.70235501 3.93862057 16.40441544 3.86139413 24.10640049 3.76428509 C27.68329653 3.71967697 31.26008118 3.68040047 34.8371582 3.65356445 C38.29331807 3.62743513 41.7490471 3.5869665 45.20493889 3.53681374 C47.15618491 3.5121637 49.10759796 3.50212513 51.05897522 3.49235535 C57.52373512 3.3857819 62.2531033 2.9843622 68 0 C70.4375 0.3125 70.4375 0.3125 72 1 C65.01338287 7.40439903 54.90283679 6.26684882 46.09375 6.1953125 C44.75997125 6.19157544 43.42618972 6.18873175 42.09240723 6.18673706 C38.60717999 6.17915506 35.1221234 6.15955436 31.63696289 6.1373291 C28.07049873 6.11675256 24.5040066 6.10771027 20.9375 6.09765625 C13.9582639 6.07630245 6.97914018 6.04223339 0 6 C-1.125 2.25 -1.125 2.25 0 0 Z " fill="#5AACAD" transform="translate(325,511)"/>
<path d="M0 0 C14.36877971 -0.16365365 28.73741455 -0.28655917 43.1069355 -0.3626852 C49.77934197 -0.39922186 56.45100089 -0.44878191 63.12304688 -0.52807617 C69.5616051 -0.60411694 75.99956119 -0.64598719 82.43853378 -0.6641407 C84.89540971 -0.67707793 87.35225255 -0.70234172 89.80887222 -0.7401104 C93.24977142 -0.79090916 96.68818087 -0.79792415 100.12939453 -0.79467773 C101.14575485 -0.81984467 102.16211517 -0.8450116 103.20927429 -0.87094116 C110.00383596 -0.80154999 110.00383596 -0.80154999 113.0031395 1.61179924 C114.50019247 3.34247833 115.79698588 5.05606058 117 7 C116.34 7.33 115.68 7.66 115 8 C112.95880212 6.38405168 110.95927063 4.7143618 109 3 C109 2.34 109 1.68 109 1 C57.52 1.495 57.52 1.495 5 2 C5.33 2.66 5.66 3.32 6 4 C5.34 4.66 4.68 5.32 4 6 C2.68 4.02 1.36 2.04 0 0 Z " fill="#208F8E" transform="translate(226,264)"/>
<path d="M0 0 C0.495 0.99 0.495 0.99 1 2 C-2.89242132 10.58530025 -9.01675647 18.55960886 -18 22 C-23.40417872 23.19787618 -28.7073417 23.12815145 -34.2109375 23.09765625 C-35.17907379 23.0962413 -36.14721008 23.09482635 -37.14468384 23.09336853 C-40.22148799 23.08779365 -43.29821803 23.07524577 -46.375 23.0625 C-48.46744686 23.05748175 -50.55989487 23.05291941 -52.65234375 23.04882812 C-57.7682575 23.03783245 -62.88411621 23.02058515 -68 23 C-68 22.67 -68 22.34 -68 22 C-66.12465576 21.93268677 -66.12465576 21.93268677 -64.21142578 21.86401367 C-59.5329639 21.69260635 -54.85532434 21.50394409 -50.17773438 21.31030273 C-48.16066322 21.22916176 -46.14340291 21.15257995 -44.12597656 21.08081055 C-41.21096042 20.97629093 -38.29703884 20.85489776 -35.3828125 20.73046875 C-34.49385284 20.70220505 -33.60489319 20.67394135 -32.68899536 20.64482117 C-27.21606318 20.39148443 -22.4181704 19.44718335 -17.21310425 17.72822571 C-15.1563718 17.05145441 -13.10611931 16.49835153 -11 16 C-10.67 14.35 -10.34 12.7 -10 11 C-8.35 10.67 -6.7 10.34 -5 10 C-4.89042969 9.36191406 -4.78085937 8.72382813 -4.66796875 8.06640625 C-4.50941406 7.24011719 -4.35085938 6.41382813 -4.1875 5.5625 C-3.96126953 4.32693359 -3.96126953 4.32693359 -3.73046875 3.06640625 C-3.48941406 2.38449219 -3.24835938 1.70257813 -3 1 C-2.01 0.67 -1.02 0.34 0 0 Z " fill="#5DB6B7" transform="translate(333,474)"/>
<path d="M0 0 C1.29550781 0.00322266 2.59101563 0.00644531 3.92578125 0.00976562 C5.28906317 0.01812027 6.65234442 0.02658521 8.015625 0.03515625 C9.39452965 0.04017457 10.77343604 0.0447369 12.15234375 0.04882812 C15.52348159 0.06061532 18.89453128 0.0770699 22.265625 0.09765625 C21.935625 2.40765625 21.605625 4.71765625 21.265625 7.09765625 C20.605625 6.43765625 19.945625 5.77765625 19.265625 5.09765625 C19.265625 3.77765625 19.265625 2.45765625 19.265625 1.09765625 C15.72369125 1.2374103 12.18215501 1.38554559 8.640625 1.53515625 C7.64160156 1.57447266 6.64257812 1.61378906 5.61328125 1.65429688 C-1.62030268 1.89527012 -1.62030268 1.89527012 -8.734375 3.09765625 C-9.82603775 5.03096228 -9.82603775 5.03096228 -10.734375 7.09765625 C-11.50007813 7.32324219 -12.26578125 7.54882812 -13.0546875 7.78125 C-16.82803614 9.63492127 -17.90120725 12.55350739 -19.546875 16.22265625 C-19.85818359 16.88136719 -20.16949219 17.54007812 -20.49023438 18.21875 C-21.25301573 19.83819349 -21.99571486 21.4670693 -22.734375 23.09765625 C-23.724375 22.76765625 -24.714375 22.43765625 -25.734375 22.09765625 C-25.3819826 15.22600447 -21.65554226 9.78894278 -16.69921875 5.22265625 C-11.02773364 0.81267904 -7.21691003 -0.03165311 0 0 Z " fill="#0F8A8C" transform="translate(383.734375,411.90234375)"/>
<path d="M0 0 C19.47 0 38.94 0 59 0 C58 7 58 7 56 10 C56 7.36 56 4.72 56 2 C27.785 2.495 27.785 2.495 -1 3 C-0.67 2.01 -0.34 1.02 0 0 Z " fill="#4AA6A9" transform="translate(154,458)"/>
<path d="M0 0 C0.33 0.99 0.66 1.98 1 3 C0.67 3.639375 0.34 4.27875 0 4.9375 C-1.24303406 7.50125774 -0.74975303 8.33421144 0 11 C-0.185625 11.70125 -0.37125 12.4025 -0.5625 13.125 C-0.706875 13.74375 -0.85125 14.3625 -1 15 C-0.34 15.66 0.32 16.32 1 17 C5.50317123 16.64736215 5.50317123 16.64736215 9 14 C9.99 14 10.98 14 12 14 C11.10839269 17.29894706 10.33503019 18.75087499 7.5625 20.8125 C2.66412046 22.44529318 -1.88423032 22.24577541 -7 22 C-7.49579633 16.38687729 -5.82103449 12.58072229 -3.5 7.625 C-3.16613281 6.88894531 -2.83226562 6.15289062 -2.48828125 5.39453125 C-1.66884796 3.59177802 -0.83578451 1.79523101 0 0 Z " fill="#319BA0" transform="translate(214,474)"/>
<path d="M0 0 C1.14204391 -0.00021904 1.14204391 -0.00021904 2.30715942 -0.0004425 C4.8177579 0.00025284 7.32828171 0.00802752 9.83886719 0.01586914 C11.58192911 0.01773466 13.32499156 0.01915793 15.0680542 0.02015686 C19.65146334 0.02397145 24.2348407 0.03379272 28.8182373 0.04486084 C33.49698456 0.05509769 38.17573696 0.05965936 42.85449219 0.06469727 C52.03158947 0.07541593 61.20866318 0.09247967 70.38574219 0.11352539 C69.88775848 3.84840316 69.51082462 5.92590174 67.38574219 9.11352539 C67.38574219 6.47352539 67.38574219 3.83352539 67.38574219 1.11352539 C29.27074219 1.60852539 29.27074219 1.60852539 -9.61425781 2.11352539 C-10.27425781 3.43352539 -10.93425781 4.75352539 -11.61425781 6.11352539 C-12.60425781 5.78352539 -13.59425781 5.45352539 -14.61425781 5.11352539 C-14.94425781 5.77352539 -15.27425781 6.43352539 -15.61425781 7.11352539 C-16.27425781 6.45352539 -16.93425781 5.79352539 -17.61425781 5.11352539 C-11.38732538 0.72636845 -7.50368651 -0.03773246 0 0 Z " fill="#2C8F8F" transform="translate(191.6142578125,411.886474609375)"/>
<path d="M0 0 C2.77574747 2.43386655 4.15028746 4.97494845 5.6875 8.3125 C6.34298828 9.69888672 6.34298828 9.69888672 7.01171875 11.11328125 C8.08480425 14.24770887 8.17977217 16.71065518 8 20 C3.3072192 19.53992345 -0.29845255 19.04833319 -4 16 C-4.8125 13.3125 -4.8125 13.3125 -5 11 C-4.34 11 -3.68 11 -3 11 C-3 11.66 -3 12.32 -3 13 C-2.34 12.67 -1.68 12.34 -1 12 C-0.53101037 9.1840151 -0.53101037 9.1840151 -0.375 5.9375 C-0.26285156 4.28041016 -0.26285156 4.28041016 -0.1484375 2.58984375 C-0.09945312 1.73519531 -0.05046875 0.88054687 0 0 Z " fill="#0E9196" transform="translate(115,497)"/>
<path d="M0 0 C0.66 0 1.32 0 2 0 C2.495 1.98 2.495 1.98 3 4 C-32.64 4 -68.28 4 -105 4 C-105.33 3.01 -105.66 2.02 -106 1 C-105.34 1 -104.68 1 -104 1 C-104 1.66 -104 2.32 -104 3 C-69.68 3 -35.36 3 0 3 C0 2.01 0 1.02 0 0 Z " fill="#1A8989" transform="translate(441,399)"/>
<path d="M0 0 C0.33 0.66 0.66 1.32 1 2 C1.99 2 2.98 2 4 2 C4.33 1.34 4.66 0.68 5 0 C5.33 2.64 5.66 5.28 6 8 C6.66 8 7.32 8 8 8 C8 8.66 8 9.32 8 10 C9.32 10 10.64 10 12 10 C13.625 11.4375 13.625 11.4375 15 13 C17.88828771 14.44414385 20.53041489 13.97280874 23.7109375 13.83984375 C26.25610333 14.01791849 27.81245757 14.72643078 30 16 C30 16.66 30 17.32 30 18 C33.3 18.33 36.6 18.66 40 19 C40 19.33 40 19.66 40 20 C26.60012646 20.51464664 15.40995696 18.75129412 5.1875 9.4375 C4.465625 8.633125 3.74375 7.82875 3 7 C2.236875 6.236875 1.47375 5.47375 0.6875 4.6875 C0.130625 4.130625 -0.42625 3.57375 -1 3 C-0.67 2.01 -0.34 1.02 0 0 Z " fill="#DF272B" transform="translate(72,74)"/>
<path d="M0 0 C1.30543408 3.91630223 0.36865443 5.04915817 -1.30859375 8.76171875 C-1.98233032 10.27318481 -1.98233032 10.27318481 -2.66967773 11.81518555 C-3.54474976 13.7319812 -3.54474976 13.7319812 -4.4375 15.6875 C-6.273125 19.750625 -8.10875 23.81375 -10 28 C-19.57 28 -29.14 28 -39 28 C-39 27.67 -39 27.34 -39 27 C-30.09 26.67 -21.18 26.34 -12 26 C-11.01 22.37 -10.02 18.74 -9 15 C-8.34 14.34 -7.68 13.68 -7 13 C-6.35232207 10.42938689 -6.35232207 10.42938689 -6 8 C-5.34 8 -4.68 8 -4 8 C-3.67 6.02 -3.34 4.04 -3 2 C-2.01 2 -1.02 2 0 2 C0 1.34 0 0.68 0 0 Z " fill="#2E9395" transform="translate(258,421)"/>
<path d="M0 0 C2 3 2 3 1.765625 5.30859375 C0.23712394 10.6817429 -1.92826259 15.81777105 -4 21 C-4.45246094 22.13695312 -4.90492188 23.27390625 -5.37109375 24.4453125 C-8.73820994 32.73820994 -8.73820994 32.73820994 -11 35 C-11.79953138 31.71303767 -12.09658936 30.28976808 -11 27 C-10.34 27 -9.68 27 -9 27 C-9.061875 26.2575 -9.12375 25.515 -9.1875 24.75 C-9 22 -9 22 -7.625 20.25 C-5.4887347 17.2920942 -5.09146568 14.4726801 -4.4296875 10.92578125 C-4 9 -4 9 -3 8 C-2.855625 6.845 -2.71125 5.69 -2.5625 4.5 C-2.376875 3.345 -2.19125 2.19 -2 1 C-1.34 0.67 -0.68 0.34 0 0 Z " fill="#53AAAD" transform="translate(203,478)"/>
<path d="M0 0 C1.11503906 0.00322266 2.23007812 0.00644531 3.37890625 0.00976562 C4.53777344 0.01814453 5.69664062 0.02652344 6.890625 0.03515625 C8.06496094 0.03966797 9.23929687 0.04417969 10.44921875 0.04882812 C13.34640572 0.06060531 16.24348954 0.07705299 19.140625 0.09765625 C19.140625 1.41765625 19.140625 2.73765625 19.140625 4.09765625 C18.480625 4.09765625 17.820625 4.09765625 17.140625 4.09765625 C17.140625 3.10765625 17.140625 2.11765625 17.140625 1.09765625 C13.70246353 1.20748455 10.26540152 1.33812488 6.828125 1.47265625 C5.36342773 1.5190625 5.36342773 1.5190625 3.86914062 1.56640625 C2.46245117 1.62441406 2.46245117 1.62441406 1.02734375 1.68359375 C0.16326904 1.71501465 -0.70080566 1.74643555 -1.59106445 1.77880859 C-4.13679945 1.96953662 -4.13679945 1.96953662 -6.859375 4.09765625 C-7.189375 5.08765625 -7.519375 6.07765625 -7.859375 7.09765625 C-9.468125 7.19046875 -9.468125 7.19046875 -11.109375 7.28515625 C-14.99469461 7.75911584 -14.99469461 7.75911584 -17.296875 10.66015625 C-17.8125 11.46453125 -18.328125 12.26890625 -18.859375 13.09765625 C-19.849375 12.76765625 -20.839375 12.43765625 -21.859375 12.09765625 C-18.10886009 6.18775397 -14.86519082 2.7100684 -8.01074219 0.50219727 C-5.30596847 -0.00640578 -2.75234303 -0.01404257 0 0 Z " fill="#379290" transform="translate(430.859375,411.90234375)"/>
<path d="M0 0 C0.66 0.99 1.32 1.98 2 3 C1.34938905 4.67299959 0.67966676 6.33859237 0 8 C0 10.31 0 12.62 0 15 C9.57 15.33 19.14 15.66 29 16 C29 16.33 29 16.66 29 17 C17.45 17 5.9 17 -6 17 C-5.15813297 12.79066487 -4.10885537 9.58732921 -2.4375 5.6875 C-1.75494141 4.08455078 -1.75494141 4.08455078 -1.05859375 2.44921875 C-0.53458984 1.23685547 -0.53458984 1.23685547 0 0 Z " fill="#3D9B9E" transform="translate(164,432)"/>
<path d="M0 0 C-0.5056435 5.53359156 -1.95616868 9.56030575 -4.5625 14.4375 C-4.89185547 15.07365234 -5.22121094 15.70980469 -5.56054688 16.36523438 C-6.36453248 17.91494576 -7.18097666 19.45818322 -8 21 C-9.125 17.25 -9.125 17.25 -8 15 C-7.34 15 -6.68 15 -6 15 C-5.87625 13.783125 -5.7525 12.56625 -5.625 11.3125 C-5.25468643 7.67108326 -4.44852637 5.62131592 -3 2 C-10.425 3.485 -10.425 3.485 -18 5 C-12.45672345 -0.54327655 -7.46870965 -0.26104228 0 0 Z " fill="#369497" transform="translate(243,458)"/>
<path d="M0 0 C-0.8055863 7.73362853 -3.39071877 14.12517861 -7 21 C-7.99 21 -8.98 21 -10 21 C-9.67 22.32 -9.34 23.64 -9 25 C-9.99 25 -10.98 25 -12 25 C-9.82144455 16.70620117 -6.83237952 8.6754342 -3 1 C-1 0 -1 0 0 0 Z " fill="#30999C" transform="translate(248,469)"/>
<path d="M0 0 C0.66 0.33 1.32 0.66 2 1 C-0.85057115 10.88388992 -8.74439852 19.05658766 -17 25 C-19.265625 25.71484375 -19.265625 25.71484375 -21 26 C-21 25.01 -21 24.02 -21 23 C-18.34771188 21.92474806 -15.71631546 20.90543849 -13 20 C-13 19.01 -13 18.02 -13 17 C-11.125 14.8125 -11.125 14.8125 -9 13 C-8.34 13 -7.68 13 -7 13 C-7 12.01 -7 11.02 -7 10 C-6.34 10 -5.68 10 -5 10 C-4.896875 9.360625 -4.79375 8.72125 -4.6875 8.0625 C-4.460625 7.381875 -4.23375 6.70125 -4 6 C-3.01 5.67 -2.02 5.34 -1 5 C-0.67 3.35 -0.34 1.7 0 0 Z " fill="#259799" transform="translate(418,486)"/>
<path d="M0 0 C6.93 0 13.86 0 21 0 C22.125 6.75 22.125 6.75 20.56640625 10.3046875 C20.0878418 11.42617188 20.0878418 11.42617188 19.59960938 12.5703125 C19.08624023 13.71113281 19.08624023 13.71113281 18.5625 14.875 C18.05493164 16.050625 18.05493164 16.050625 17.53710938 17.25 C16.70479879 19.17252022 15.85419934 21.08710472 15 23 C13.86231908 19.1864652 14.34250475 17.4233224 15.9375 13.75 C16.31777344 12.85796875 16.69804687 11.9659375 17.08984375 11.046875 C17.39019531 10.37140625 17.69054687 9.6959375 18 9 C17.34 8.34 16.68 7.68 16 7 C16.33 5.35 16.66 3.7 17 2 C11.39 1.67 5.78 1.34 0 1 C0 0.67 0 0.34 0 0 Z " fill="#269899" transform="translate(427,413)"/>
<path d="M0 0 C0.33 0 0.66 0 1 0 C1.14285714 8.57142857 1.14285714 8.57142857 0 12 C-0.66 12 -1.32 12 -2 12 C-1.67 19.59 -1.34 27.18 -1 35 C-5.55368202 28.16947696 -4.60525444 18.95477267 -4 11 C-3.17310216 7.04306555 -1.81099156 3.62198311 0 0 Z " fill="#DE6869" transform="translate(68,32)"/>
<path d="M0 0 C3.93260944 -0.07421454 7.86494722 -0.12863136 11.7980957 -0.16479492 C13.79327701 -0.18728333 15.78826213 -0.22540198 17.78320312 -0.26367188 C19.03681641 -0.27333984 20.29042969 -0.28300781 21.58203125 -0.29296875 C22.73936768 -0.3086792 23.8967041 -0.32438965 25.08911133 -0.34057617 C28 0 28 0 29.90112305 1.51831055 C30.26375244 2.00726807 30.62638184 2.49622559 31 3 C30.67 3.99 30.34 4.98 30 6 C29.67 5.34 29.34 4.68 29 4 C27.68 4 26.36 4 25 4 C25 3.34 25 2.68 25 2 C16.75 2 8.5 2 0 2 C0 1.34 0 0.68 0 0 Z " fill="#1E8E91" transform="translate(128,412)"/>
<path d="M0 0 C2.76223278 2.76223278 2.57856291 5.20706617 3 9 C2.401875 9.309375 1.80375 9.61875 1.1875 9.9375 C-1.66859851 12.63039288 -2.159084 15.19659312 -3.09375 18.94140625 C-4 21 -4 21 -6.09375 22.27734375 C-6.7228125 22.51582031 -7.351875 22.75429688 -8 23 C-5.81659819 15.13620323 -3.00714974 7.58324716 0 0 Z " fill="#329DA1" transform="translate(355,437)"/>
<path d="M0 0 C0.33 0.66 0.66 1.32 1 2 C-0.22026782 3.75621671 -1.45164069 5.50471995 -2.6875 7.25 C-3.37199219 8.22453125 -4.05648438 9.1990625 -4.76171875 10.203125 C-6.95711148 12.94640806 -9.17900763 14.92501437 -12 17 C-12 15.68 -12 14.36 -12 13 C-11.01 13 -10.02 13 -9 13 C-9.2475 12.29875 -9.495 11.5975 -9.75 10.875 C-10 8 -10 8 -8.4375 4.8125 C-5.72833809 1.68654395 -3.97700372 0.90386448 0 0 Z " fill="#39A9AB" transform="translate(431,192)"/>
<path d="M0 0 C2.78637633 4.1795645 1.79562512 6.14668677 1 11 C0.34 11 -0.32 11 -1 11 C-1.335939 12.4577353 -1.66866624 13.91621106 -2 15.375 C-2.185625 16.18710937 -2.37125 16.99921875 -2.5625 17.8359375 C-3.06605239 19.95874951 -3.06605239 19.95874951 -3 22 C-0.69 22 1.62 22 4 22 C4 22.33 4 22.66 4 23 C-3.42857143 24.28571429 -3.42857143 24.28571429 -7 23 C-6.50020114 15.83621632 -3.64447166 9.61117915 -1 3 C-0.67 2.01 -0.34 1.02 0 0 Z " fill="#439DA2" transform="translate(147,473)"/>
<path d="M0 0 C0 3.15084005 -0.45473667 4.33871316 -2 7 C-4 9 -4 9 -6.265625 9.23046875 C-17.18764535 9.07321453 -28.09151296 8.55225409 -39 8 C-39 7.67 -39 7.34 -39 7 C-38.06728271 7.00112793 -37.13456543 7.00225586 -36.17358398 7.00341797 C-32.68565053 6.99344439 -29.20006301 6.9567343 -25.71264648 6.90234375 C-24.20850471 6.88426629 -22.70419799 6.87660022 -21.19995117 6.87988281 C-11.17440941 7.20585997 -11.17440941 7.20585997 -2.47265625 2.9453125 C-1.65667969 1.97335937 -0.84070313 1.00140625 0 0 Z " fill="#60B4B6" transform="translate(126,451)"/>
<path d="M0 0 C0 3.10551666 -0.5393715 4.35261084 -2 7 C-2.99 6.67 -3.98 6.34 -5 6 C-6.54970448 5.91312201 -8.10289707 5.8823134 -9.6550293 5.88647461 C-10.59577805 5.88655014 -11.53652679 5.88662567 -12.50578308 5.88670349 C-14.02465874 5.89444542 -14.02465874 5.89444542 -15.57421875 5.90234375 C-16.61318802 5.9037587 -17.65215729 5.90517365 -18.72261047 5.90663147 C-22.04426948 5.91223344 -25.36586133 5.92478628 -28.6875 5.9375 C-30.93815007 5.94251475 -33.18880119 5.9470777 -35.43945312 5.95117188 C-40.95965837 5.96220351 -46.47982439 5.97894357 -52 6 C-52 5.67 -52 5.34 -52 5 C-51.43703217 4.99635437 -50.87406433 4.99270874 -50.29403687 4.98895264 C-44.42103166 4.94705917 -38.54880298 4.87766601 -32.67626953 4.79248047 C-30.48624447 4.7642994 -28.29611823 4.74307066 -26.10595703 4.72900391 C-22.95292473 4.70753523 -19.80110515 4.66086325 -16.6484375 4.609375 C-15.67321136 4.60814636 -14.69798523 4.60691772 -13.69320679 4.60565186 C-7.83658985 4.48019365 -4.52268414 3.80090878 0 0 Z " fill="#6EBEC1" transform="translate(303,453)"/>
<path d="M0 0 C0.33 0 0.66 0 1 0 C1.43316755 6.0563241 0.03670654 10.29524279 -2.375 15.8125 C-2.69210938 16.57498047 -3.00921875 17.33746094 -3.3359375 18.12304688 C-5.70488911 23.70488911 -5.70488911 23.70488911 -8 26 C-8.33 24.35 -8.66 22.7 -9 21 C-8.34 21 -7.68 21 -7 21 C-6.83564453 20.14728516 -6.83564453 20.14728516 -6.66796875 19.27734375 C-5.61691854 14.15881468 -4.1879328 9.74052108 -2 5 C-1.32723284 3.3357865 -0.65793165 1.67013418 0 0 Z " fill="#439EA1" transform="translate(146,454)"/>
<path d="M0 0 C1.5 1.25 1.5 1.25 3 3 C3 4.32 3 5.64 3 7 C3.99 7.33 4.98 7.66 6 8 C7.0625 11.1875 7.0625 11.1875 8 15 C8.391875 16.093125 8.78375 17.18625 9.1875 18.3125 C10 21 10 21 9 23 C-1.42081019 6.36143972 -1.42081019 6.36143972 -0.59765625 1.7421875 C-0.40042969 1.16726563 -0.20320313 0.59234375 0 0 Z " fill="#2F9B9D" transform="translate(70,417)"/>
<path d="M0 0 C0.66 0.33 1.32 0.66 2 1 C1.91306859 2.79258558 1.80489496 4.58415144 1.6875 6.375 C1.62949219 7.37273437 1.57148438 8.37046875 1.51171875 9.3984375 C1.34285156 10.25695312 1.17398437 11.11546875 1 12 C0.01 12.66 -0.98 13.32 -2 14 C-2.144375 14.66 -2.28875 15.32 -2.4375 16 C-3 18 -3 18 -5.0625 19.25 C-5.701875 19.4975 -6.34125 19.745 -7 20 C-6.29937517 15.43263559 -4.68729793 11.4300495 -2.9375 7.1875 C-2.51500977 6.14819336 -2.51500977 6.14819336 -2.08398438 5.08789062 C-1.39325027 3.39032376 -0.69716272 1.69493688 0 0 Z " fill="#2D999A" transform="translate(391,465)"/>
<path d="M0 0 C0.99 0 1.98 0 3 0 C3 1.32 3 2.64 3 4 C17.19 4.33 31.38 4.66 46 5 C46 5.33 46 5.66 46 6 C30.82 6 15.64 6 0 6 C-1 3 -1 3 0 0 Z " fill="#41989C" transform="translate(256,443)"/>
<path d="M0 0 C1.36521966 0.01507008 2.73045535 0.02875439 4.09570312 0.04101562 C7.41838096 0.07623836 10.74023181 0.12549959 14.0625 0.1875 C13.7325 2.4975 13.4025 4.8075 13.0625 7.1875 C12.4025 6.5275 11.7425 5.8675 11.0625 5.1875 C11.0625 3.8675 11.0625 2.5475 11.0625 1.1875 C7.5827594 1.29885894 4.10396066 1.42912132 0.625 1.5625 C-0.34888672 1.5934375 -1.32277344 1.624375 -2.32617188 1.65625 C-7.81389761 1.87649317 -12.87122384 2.43262183 -18.17993164 3.86962891 C-19.9375 4.1875 -19.9375 4.1875 -21.9375 3.1875 C-14.9955688 -0.83818613 -7.81042945 -0.15014609 0 0 Z " fill="#469DA0" transform="translate(391.9375,411.8125)"/>
<path d="M0 0 C0.33 0.66 0.66 1.32 1 2 C1.66 2 2.32 2 3 2 C3 7.61 3 13.22 3 19 C3.66 19.33 4.32 19.66 5 20 C4.34 20 3.68 20 3 20 C3.33 20.99 3.66 21.98 4 23 C2.6875 25.6875 2.6875 25.6875 1 28 C0.34 28 -0.32 28 -1 28 C-0.855625 27.35933594 -0.71125 26.71867187 -0.5625 26.05859375 C1.19673 17.86107062 1.2294225 11.2148869 -0.66015625 3.0390625 C-0.77230469 2.36617188 -0.88445312 1.69328125 -1 1 C-0.67 0.67 -0.34 0.34 0 0 Z " fill="#5BB8B6" transform="translate(360,118)"/>
<path d="M0 0 C0.5692218 0.16076523 1.1384436 0.32153046 1.72491455 0.48716736 C4.01594948 1.00359521 6.05637245 1.15704296 8.40136719 1.20532227 C9.2619574 1.22526749 10.12254761 1.24521271 11.00921631 1.26576233 C11.92914368 1.28247482 12.84907104 1.29918732 13.796875 1.31640625 C15.22003021 1.3475779 15.22003021 1.3475779 16.67193604 1.37937927 C19.69788482 1.44467934 22.7239192 1.50366888 25.75 1.5625 C27.80339421 1.6057038 29.85677982 1.64931869 31.91015625 1.69335938 C36.9400168 1.80034073 41.96996332 1.90166323 47 2 C47.495 2.99 47.495 2.99 48 4 C32.49 3.67 16.98 3.34 1 3 C0.67 2.01 0.34 1.02 0 0 Z " fill="#108B8E" transform="translate(258,445)"/>
<path d="M0 0 C0.66 0.33 1.32 0.66 2 1 C1.67 2.98 1.34 4.96 1 7 C10.9 6.505 10.9 6.505 21 6 C16.24153302 9.17231132 12.34320664 9.12529405 6.8125 9.0625 C6.06291016 9.05798828 5.31332031 9.05347656 4.54101562 9.04882812 C2.69397617 9.03706354 0.84697787 9.01912865 -1 9 C-2.13583456 5.28272326 -1.66670026 3.52948291 0 0 Z " fill="#63ADB1" transform="translate(230,508)"/>
<path d="M0 0 C2.31 0 4.62 0 7 0 C2.8605237 5.65728428 -2.17008739 9.17376609 -8 13 C-8.66 12.67 -9.32 12.34 -10 12 C-10 11.34 -10 10.68 -10 10 C-9.34 10 -8.68 10 -8 10 C-8 9.34 -8 8.68 -8 8 C-5.09451118 5.95830515 -3.59857954 5 0 5 C0 3.35 0 1.7 0 0 Z " fill="#6EBDBD" transform="translate(400,222)"/>
<path d="M0 0 C4.50583621 3.56922981 8.31697751 6.85754022 11 12 C10.75 14.375 10.75 14.375 10 16 C8.125 15.5 8.125 15.5 6 14 C5.01505446 11.34822355 4.54087618 8.79452693 4 6 C2.35 6.66 0.7 7.32 -1 8 C-1 7.01 -1 6.02 -1 5 C-0.34 5 0.32 5 1 5 C0.67 3.35 0.34 1.7 0 0 Z " fill="#32A19C" transform="translate(419,56)"/>
<path d="M0 0 C0 0.66 0 1.32 0 2 C-1.2065625 2.37125 -1.2065625 2.37125 -2.4375 2.75 C-3.283125 3.1625 -4.12875 3.575 -5 4 C-5.165 4.66 -5.33 5.32 -5.5 6 C-5.665 6.66 -5.83 7.32 -6 8 C-6.78375 8.28875 -7.5675 8.5775 -8.375 8.875 C-11.96419303 10.41322558 -12.55010571 12.48972962 -14 16 C-15.32 16 -16.64 16 -18 16 C-15.21071808 9.72411568 -7.53454497 0 0 0 Z " fill="#DD383B" transform="translate(89,13)"/>
<path d="M0 0 C5.88367186 -0.19922139 10.93249496 0.4313971 16.625 1.875 C17.71167969 2.13603516 17.71167969 2.13603516 18.8203125 2.40234375 C22.95417423 3.41334254 26.97976933 4.59228516 31 6 C31 6.33 31 6.66 31 7 C24.66934668 7.22212819 19.83302134 6.3391661 13.80859375 4.234375 C9.16910738 2.63292793 4.8856331 1.5197482 0 1 C0 0.67 0 0.34 0 0 Z " fill="#64BEBC" transform="translate(329,9)"/>
<path d="M0 0 C0.66 0.33 1.32 0.66 2 1 C0.21480177 6.69031935 -1.78365044 9.19219932 -6.9921875 12.1328125 C-9.44028163 13.19016055 -11.36496256 13.4117246 -14 13 C-12 10 -12 10 -9.625 9.1875 C-6.08179518 7.58462163 -5.02909531 5.2465525 -3 2 C-2.01 1.34 -1.02 0.68 0 0 Z " fill="#2A999A" transform="translate(386,483)"/>
<path d="M0 0 C0.99 0 1.98 0 3 0 C1.04930025 5.70281101 -2.40223792 9.21110347 -7 13 C-10.5 14.5 -10.5 14.5 -13 15 C-13 14.01 -13 13.02 -13 12 C-11.35 12 -9.7 12 -8 12 C-7.938125 11.2575 -7.87625 10.515 -7.8125 9.75 C-6.74850088 6.14877223 -5.08629328 5.03243704 -2 3 C-1.34 3 -0.68 3 0 3 C0 2.01 0 1.02 0 0 Z " fill="#46A5A7" transform="translate(135,480)"/>
<path d="M0 0 C4.09480199 3.74381897 7.7448683 7.8668907 10 13 C9.67 13.99 9.34 14.98 9 16 C7.02 16 5.04 16 3 16 C2.87068966 11.34482759 2.87068966 11.34482759 3.75 9 C4.26693713 6.73071155 4.26693713 6.73071155 2.0625 4.375 C1.381875 3.59125 0.70125 2.8075 0 2 C0 1.34 0 0.68 0 0 Z " fill="#3EB1B0" transform="translate(432,386)"/>
<path d="M0 0 C0.33 0.66 0.66 1.32 1 2 C1.99 2 2.98 2 4 2 C4.33 1.34 4.66 0.68 5 0 C5.33 2.64 5.66 5.28 6 8 C6.66 8 7.32 8 8 8 C8 8.66 8 9.32 8 10 C9.32 10 10.64 10 12 10 C13.75 11.375 13.75 11.375 15 13 C15 13.66 15 14.32 15 15 C7.73958375 12.97383733 3.33484379 8.99228406 -1 3 C-0.67 2.01 -0.34 1.02 0 0 Z " fill="#E14043" transform="translate(72,74)"/>
<path d="M0 0 C1.07165569 3.21496708 0.94376088 4.39796074 0.25 7.625 C0.09015625 8.42164063 -0.0696875 9.21828125 -0.234375 10.0390625 C-0.48703125 10.68617188 -0.7396875 11.33328125 -1 12 C-1.99 12.33 -2.98 12.66 -4 13 C-4.12375 13.78375 -4.2475 14.5675 -4.375 15.375 C-5 18 -5 18 -7 20 C-6.42810177 15.56778868 -4.6784835 11.9610265 -2.7421875 7.98828125 C-2.49726563 7.33214844 -2.25234375 6.67601562 -2 6 C-2.33 5.34 -2.66 4.68 -3 4 C-3.99 3.67 -4.98 3.34 -6 3 C-6 2.34 -6 1.68 -6 1 C-4 0 -4 0 0 0 Z " fill="#38A1A6" transform="translate(169,493)"/>
<path d="M0 0 C0.33 0.66 0.66 1.32 1 2 C1.66 2.33 2.32 2.66 3 3 C2.01 4.485 2.01 4.485 1 6 C0.31526605 8.32809543 -0.34853151 10.66237777 -1 13 C-1.9534825 15.68666006 -2.97331371 18.33994915 -4 21 C-4.99 21 -5.98 21 -7 21 C-4.66666667 14 -2.33333333 7 0 0 Z " fill="#2E9598" transform="translate(265,420)"/>
<path d="M0 0 C0.99 0 1.98 0 3 0 C3.33 0.99 3.66 1.98 4 3 C0.78688525 8.73770492 0.78688525 8.73770492 -3 10 C-4.66589237 11.85811713 -4.66589237 11.85811713 -6.1875 14.0625 C-6.71730469 14.79597656 -7.24710938 15.52945313 -7.79296875 16.28515625 C-8.39044922 17.13400391 -8.39044922 17.13400391 -9 18 C-9.66 17.67 -10.32 17.34 -11 17 C-10.45730469 16.35933594 -9.91460937 15.71867187 -9.35546875 15.05859375 C-5.34742815 10.21283656 -2.07192078 5.95677223 0 0 Z " fill="#347A7B" transform="translate(148,64)"/>
<path d="M0 0 C1.98 0.99 1.98 0.99 4 2 C4 3.32 4 4.64 4 6 C4.66 6 5.32 6 6 6 C8.18516079 11.31549034 8.3018426 16.04097682 8.25 21.6875 C8.25773438 22.54150391 8.26546875 23.39550781 8.2734375 24.27539062 C8.27085937 25.09587891 8.26828125 25.91636719 8.265625 26.76171875 C8.26336914 27.50381592 8.26111328 28.24591309 8.25878906 29.01049805 C8 31 8 31 6 34 C6.03480469 32.72125 6.06960937 31.4425 6.10546875 30.125 C6.13362787 28.41667991 6.16092574 26.70834548 6.1875 25 C6.21263672 24.16082031 6.23777344 23.32164063 6.26367188 22.45703125 C6.33225846 16.5585846 5.26961087 12.43276934 3 7 C3 6.01 3 5.02 3 4 C2.34 4 1.68 4 1 4 C0.67 2.68 0.34 1.36 0 0 Z " fill="#397E7C" transform="translate(143,28)"/>
<path d="M0 0 C3.18563162 1.59281581 3.7585548 4.83553185 5 8 C5.42539063 9.00546875 5.42539063 9.00546875 5.859375 10.03125 C7.55129525 14.18124307 8.34208533 17.43886225 8 22 C5.31055505 19.31055505 4.2585845 16.15970129 2.875 12.6875 C2.59785156 12.02298828 2.32070312 11.35847656 2.03515625 10.67382812 C0.55601719 6.99055328 -0.3539651 3.97825998 0 0 Z " fill="#50A9AC" transform="translate(89,466)"/>
<path d="M0 0 C0.33 0.99 0.66 1.98 1 3 C0.67 3.639375 0.34 4.27875 0 4.9375 C-1.26394236 6.92637095 -1.26394236 6.92637095 -0.375 8.8125 C0.17276262 12.00778198 -1.22776254 13.77748174 -2.796875 16.51171875 C-4 18 -4 18 -7 19 C-6.33392561 14.59041892 -4.73375271 10.73427814 -2.9375 6.6875 C-2.65583984 6.04232422 -2.37417969 5.39714844 -2.08398438 4.73242188 C-1.3937257 3.15301642 -0.69746802 1.57623507 0 0 Z " fill="#5BB4B5" transform="translate(214,474)"/>
<path d="M0 0 C9.9 0 19.8 0 30 0 C29 6 29 6 27 9 C27 6.36 27 3.72 27 1 C18.09 1 9.18 1 0 1 C0 0.67 0 0.34 0 0 Z " fill="#2F8D8D" transform="translate(232,412)"/>
<path d="M0 0 C0 3 0 3 -1.5625 4.625 C-6.87086163 7.61946041 -13.07288838 7.10398441 -19 7 C-16.0819231 5.43650383 -13.24456883 4.40215819 -10.0625 3.5 C-6.62081819 2.49850618 -3.29436134 1.42755658 0 0 Z " fill="#487876" transform="translate(131,87)"/>
<path d="M0 0 C0.66 0.33 1.32 0.66 2 1 C1.29937517 5.56736441 -0.31270207 9.5699505 -2.0625 13.8125 C-2.34416016 14.50537109 -2.62582031 15.19824219 -2.91601562 15.91210938 C-3.60674973 17.60967624 -4.30283728 19.30506312 -5 21 C-5.33 21 -5.66 21 -6 21 C-5.5587029 15.77411334 -5.07351958 10.8788696 -3 6 C-2.34 5.67 -1.68 5.34 -1 5 C-0.34444881 2.47266765 -0.34444881 2.47266765 0 0 Z " fill="#3F9A9C" transform="translate(157,427)"/>
<path d="M0 0 C1.32 0.33 2.64 0.66 4 1 C4 1.66 4 2.32 4 3 C5.32 2.34 6.64 1.68 8 1 C8.33 2.32 8.66 3.64 9 5 C8.01 5.66 7.02 6.32 6 7 C7.65 8.98 9.3 10.96 11 13 C10.67 13.66 10.34 14.32 10 15 C2.42182823 6.83421598 2.42182823 6.83421598 1 2 C0.67 1.34 0.34 0.68 0 0 Z " fill="#47AEAF" transform="translate(240,281)"/>
<path d="M0 0 C3.0446094 -0.18991128 6.07731366 -0.32801567 9.125 -0.4375 C9.9809375 -0.49615234 10.836875 -0.55480469 11.71875 -0.61523438 C18.03357687 -0.78524894 18.03357687 -0.78524894 20.95605469 1.58935547 C22.44809351 3.33006742 23.76936209 5.06751877 25 7 C24.01 7.495 24.01 7.495 23 8 C20.95880212 6.38405168 18.95927063 4.7143618 17 3 C17 2.34 17 1.68 17 1 C11.39 1 5.78 1 0 1 C0 0.67 0 0.34 0 0 Z " fill="#45A5A3" transform="translate(318,264)"/>
<path d="M0 0 C0.99 0.33 1.98 0.66 3 1 C3 1.66 3 2.32 3 3 C3.66 3 4.32 3 5 3 C5.33 2.01 5.66 1.02 6 0 C6.66 0 7.32 0 8 0 C6.52278578 3.45201639 4.56205999 5.64961936 1.875 8.25 C1.15054687 8.95640625 0.42609375 9.6628125 -0.3203125 10.390625 C-0.87460937 10.92171875 -1.42890625 11.4528125 -2 12 C-2.33 11.01 -2.66 10.02 -3 9 C-2.67 8.34 -2.34 7.68 -2 7 C-1.34 7 -0.68 7 0 7 C0 4.69 0 2.38 0 0 Z " fill="#30989C" transform="translate(411,209)"/>
<path d="M0 0 C2.35448165 2.55068845 2.98327924 3.71017358 3.1875 7.25 C3.125625 8.1575 3.06375 9.065 3 10 C-2.28798182 9.58525633 -5.11690718 8.64775386 -9 5 C-6.03 5.33 -3.06 5.66 0 6 C0 4.02 0 2.04 0 0 Z " fill="#489F9F" transform="translate(120,507)"/>
<path d="M0 0 C-0.33 0.99 -0.66 1.98 -1 3 C-2.91635217 3.05423638 -4.83314925 3.09289963 -6.75 3.125 C-8.35101563 3.15980469 -8.35101563 3.15980469 -9.984375 3.1953125 C-12.92470106 3.00487687 -14.52361878 2.52670104 -17 1 C-13.25548659 0.11893802 -9.83487501 0 -6 0 C-3.50907189 -1.24546405 -2.58919267 -0.7767578 0 0 Z " fill="#0E838B" transform="translate(164,493)"/>
<path d="M0 0 C7.59 0 15.18 0 23 0 C23 0.33 23 0.66 23 1 C16.4 1 9.8 1 3 1 C3.33 2.98 3.66 4.96 4 7 C3.34 7.66 2.68 8.32 2 9 C1.34 6.03 0.68 3.06 0 0 Z " fill="#218E8F" transform="translate(86,459)"/>
<path d="M0 0 C3.59634744 3.49359465 6.83451967 7.11098131 10 11 C9.34 12.32 8.68 13.64 8 15 C7.67 13.35 7.34 11.7 7 10 C6.401875 9.938125 5.80375 9.87625 5.1875 9.8125 C2.05593552 8.64934748 1.38137992 6.96996683 0 4 C0 2.68 0 1.36 0 0 Z " fill="#47A7A9" transform="translate(401,347)"/>
<path d="M0 0 C2.4375 0.8125 2.4375 0.8125 5 2 C5.33 2.99 5.66 3.98 6 5 C6.66 5.33 7.32 5.66 8 6 C8 6.99 8 7.98 8 9 C8.99 9.33 9.98 9.66 11 10 C11 11.65 11 13.3 11 15 C8.18662344 12.27376342 5.66417643 9.459781 3.25 6.375 C2.32960938 5.21097656 2.32960938 5.21097656 1.390625 4.0234375 C0 2 0 2 0 0 Z " fill="#49ACAB" transform="translate(291,346)"/>
<path d="M0 0 C1.1171875 3.71875 1.1171875 3.71875 0.0625 6.25 C-0.288125 6.8275 -0.63875 7.405 -1 8 C-1.66 8 -2.32 8 -3 8 C-3 8.66 -3 9.32 -3 10 C-3.66 10 -4.32 10 -5 10 C-5.33 10.99 -5.66 11.98 -6 13 C-7.32 12.34 -8.64 11.68 -10 11 C-9.278125 10.484375 -8.55625 9.96875 -7.8125 9.4375 C-4.49943158 6.56617403 -2.44284263 3.6293662 0 0 Z " fill="#4DABAE" transform="translate(357,148)"/>
<path d="M0 0 C1.19882813 0.15275391 1.19882813 0.15275391 2.421875 0.30859375 C3.02515625 0.39238281 3.6284375 0.47617187 4.25 0.5625 C4.25 0.8925 4.25 1.2225 4.25 1.5625 C0.62 1.5625 -3.01 1.5625 -6.75 1.5625 C-7.41 2.8825 -8.07 4.2025 -8.75 5.5625 C-9.74 5.2325 -10.73 4.9025 -11.75 4.5625 C-12.08 5.2225 -12.41 5.8825 -12.75 6.5625 C-13.41 5.9025 -14.07 5.2425 -14.75 4.5625 C-9.48728161 0.85467568 -6.39667924 -0.84661931 0 0 Z " fill="#41A4A5" transform="translate(188.75,412.4375)"/>
<path d="M0 0 C1.4216868 4.26506039 -0.34613318 7.20037743 -1.9375 11.1875 C-2.22818359 11.93708984 -2.51886719 12.68667969 -2.81835938 13.45898438 C-3.53725036 15.30924477 -4.26754653 17.15506648 -5 19 C-5.33 19 -5.66 19 -6 19 C-5.67 15.7 -5.34 12.4 -5 9 C-4.34 9 -3.68 9 -3 9 C-2.87625 8.443125 -2.7525 7.88625 -2.625 7.3125 C-1.94023145 4.77885636 -1.00866237 2.42078968 0 0 Z " fill="#54AEAC" transform="translate(442,166)"/>
<path d="M0 0 C0.33 0 0.66 0 1 0 C1.3152595 5.98993047 0.68219822 9.63560356 -2 15 C-3.59784767 12.52535506 -4.06910487 11.41272724 -3.57421875 8.45703125 C-3.28160156 7.58433594 -2.98898438 6.71164062 -2.6875 5.8125 C-2.40261719 4.93207031 -2.11773437 4.05164063 -1.82421875 3.14453125 C-1 1 -1 1 0 0 Z " fill="#2A9399" transform="translate(236,494)"/>
<path d="M0 0 C0.33 1.32 0.66 2.64 1 4 C0.236875 4.2475 -0.52625 4.495 -1.3125 4.75 C-4.2364045 6.10995558 -5.30004356 7.31585826 -7 10 C-7.99 9.67 -8.98 9.34 -10 9 C-9.23587913 7.87043002 -8.46340197 6.74651022 -7.6875 5.625 C-7.25824219 4.99851562 -6.82898438 4.37203125 -6.38671875 3.7265625 C-4.55585355 1.4470064 -3.02079342 0 0 0 Z " fill="#59A9AB" transform="translate(419,415)"/>
<path d="M0 0 C1.65 0 3.3 0 5 0 C5 1.32 5 2.64 5 4 C6.91666921 6.25065102 6.91666921 6.25065102 9 8 C8.34 8 7.68 8 7 8 C6.67 8.99 6.34 9.98 6 11 C4.9944239 9.54550599 3.99569565 8.08627557 3 6.625 C2.443125 5.81289062 1.88625 5.00078125 1.3125 4.1640625 C0 2 0 2 0 0 Z " fill="#54AFAD" transform="translate(4,171)"/>
<path d="M0 0 C5.54050113 0.56825653 10.03715966 2.62886517 15 5 C14.67 5.66 14.34 6.32 14 7 C9.1008651 5.70022952 4.62440425 4.07626313 0 2 C0 1.34 0 0.68 0 0 Z " fill="#4AACAB" transform="translate(360,16)"/>
<path d="M0 0 C-1.35335595 3.08859947 -2.80886249 5.007964 -5.375 7.1875 C-5.96023438 7.69667969 -6.54546875 8.20585937 -7.1484375 8.73046875 C-9.11024909 10.07559273 -10.676089 10.57514402 -13 11 C-13 10.01 -13 9.02 -13 8 C-10.34771188 6.92474806 -7.71631546 5.90543849 -5 5 C-5 4.01 -5 3.02 -5 2 C-2 0 -2 0 0 0 Z " fill="#41A3A7" transform="translate(410,501)"/>
<path d="M0 0 C0.66 0.33 1.32 0.66 2 1 C1.34 3.31 0.68 5.62 0 8 C4.62 8 9.24 8 14 8 C14 8.33 14 8.66 14 9 C8.39 9 2.78 9 -3 9 C-2.01 6.03 -1.02 3.06 0 0 Z " fill="#128C8F" transform="translate(165,506)"/>
<path d="M0 0 C2.54615009 0.23172827 5.07396225 0.41894529 7.625 0.5625 C8.33140625 0.60568359 9.0378125 0.64886719 9.765625 0.69335938 C11.51018537 0.79944751 13.25506697 0.90022889 15 1 C15 1.33 15 1.66 15 2 C8.07 2 1.14 2 -6 2 C-6.33 3.32 -6.66 4.64 -7 6 C-7.33 5.01 -7.66 4.02 -8 3 C-7 1 -7 1 -4.5625 -0.1875 C-2 -1 -2 -1 0 0 Z " fill="#147C81" transform="translate(271,494)"/>
<path d="M0 0 C0.66 0 1.32 0 2 0 C2 0.66 2 1.32 2 2 C1.2575 2.515625 0.515 3.03125 -0.25 3.5625 C-3.51892227 6.45995383 -4.5174041 9.04484028 -6.0078125 13.07421875 C-7 15 -7 15 -10 16 C-8.38920595 9.55682381 -4.63830054 4.63830054 0 0 Z " fill="#7DC5C6" transform="translate(368,416)"/>
<path d="M0 0 C-6.7597743 3.42410997 -12.40047112 5.62625268 -20 6 C-18 4 -18 4 -14.875 3.875 C-13.92625 3.91625 -12.9775 3.9575 -12 4 C-12 3.34 -12 2.68 -12 2 C-10.68 2 -9.36 2 -8 2 C-8 1.34 -8 0.68 -8 0 C-2.25 -1.125 -2.25 -1.125 0 0 Z " fill="#B51C1F" transform="translate(132,87)"/>
<path d="M0 0 C0.66 0.33 1.32 0.66 2 1 C2 1.66 2 2.32 2 3 C-0.96702767 4.6483487 -3.59388766 5.74454157 -7 6 C-9.3125 4.5625 -9.3125 4.5625 -11 3 C-9.68 3 -8.36 3 -7 3 C-6.67 2.34 -6.34 1.68 -6 1 C-3.03 1.495 -3.03 1.495 0 2 C0 1.34 0 0.68 0 0 Z " fill="#108A8D" transform="translate(125,489)"/>
<path d="M0 0 C0.66 0.33 1.32 0.66 2 1 C0.33846988 6.85659906 -1.47041916 12.4590134 -4 18 C-5.21065165 14.36804504 -4.62784815 12.93468371 -3.5625 9.3125 C-3.27503906 8.31863281 -2.98757813 7.32476562 -2.69140625 6.30078125 C-2.46324219 5.54152344 -2.23507812 4.78226562 -2 4 C-1.34 4 -0.68 4 0 4 C0 2.68 0 1.36 0 0 Z " fill="#7BBFC1" transform="translate(379,475)"/>
<path d="M0 0 C0.125 2.875 0.125 2.875 0 6 C-0.66 6.66 -1.32 7.32 -2 8 C-4.125 7.625 -4.125 7.625 -6 7 C-5.75 4.625 -5.75 4.625 -5 2 C-1.95238095 0 -1.95238095 0 0 0 Z " fill="#0B8D8F" transform="translate(382,468)"/>
<path d="M0 0 C0 0.66 0 1.32 0 2 C3.3 2.33 6.6 2.66 10 3 C10 3.33 10 3.66 10 4 C5.38 4 0.76 4 -4 4 C-4 3.34 -4 2.68 -4 2 C-4.99 1.67 -5.98 1.34 -7 1 C-4.50935112 0.31292445 -2.62113708 0 0 0 Z " fill="#DA2422" transform="translate(102,90)"/>
<path d="M0 0 C7.59 0 15.18 0 23 0 C23 0.33 23 0.66 23 1 C16.07 1 9.14 1 2 1 C1.67 1.99 1.34 2.98 1 4 C0.34 4 -0.32 4 -1 4 C-0.67 2.68 -0.34 1.36 0 0 Z " fill="#2D9596" transform="translate(250,459)"/>
<path d="M0 0 C1.12642186 3.37926557 0.96344705 3.72928278 -0.43359375 6.79296875 C-0.75263672 7.50517578 -1.07167969 8.21738281 -1.40039062 8.95117188 C-1.74263672 9.68916016 -2.08488281 10.42714844 -2.4375 11.1875 C-2.77587891 11.93708984 -3.11425781 12.68667969 -3.46289062 13.45898438 C-4.2999411 15.30992698 -5.14885404 17.15549666 -6 19 C-7.22787058 15.31638827 -6.6048575 14.51592673 -5.0625 11.0625 C-3.50942421 7.57202798 -3 5.93689355 -3 2 C-2.01 2 -1.02 2 0 2 C0 1.34 0 0.68 0 0 Z " fill="#86CACC" transform="translate(258,421)"/>
<path d="M0 0 C1.9453125 -0.29296875 1.9453125 -0.29296875 4.125 -0.1875 C5.40375 -0.125625 6.6825 -0.06375 8 0 C8 0.33 8 0.66 8 1 C6.02 1 4.04 1 2 1 C1.67 3.31 1.34 5.62 1 8 C-0.32 8 -1.64 8 -3 8 C-2.45276317 4.62537285 -1.9451 2.91765 0 0 Z " fill="#4BA5A5" transform="translate(269,412)"/>
<path d="M0 0 C0 0.66 0 1.32 0 2 C0.99 2 1.98 2 3 2 C3 2.66 3 3.32 3 4 C3.99 4 4.98 4 6 4 C5.67 4.99 5.34 5.98 5 7 C1.00499382 5.6302836 -1.80009492 3.74277578 -5 1 C-3 0 -3 0 0 0 Z " fill="#3CA3A2" transform="translate(344,99)"/>
<path d="M0 0 C2.51954654 2.25890379 3.87332733 4.417897 5.25 7.5 C5.60578125 8.2734375 5.9615625 9.046875 6.328125 9.84375 C7 12 7 12 6 15 C5.71125 14.38125 5.4225 13.7625 5.125 13.125 C4.06279958 10.86674235 4.06279958 10.86674235 2 9 C1.875 6.375 1.875 6.375 2 4 C1.34 4 0.68 4 0 4 C0 2.68 0 1.36 0 0 Z " fill="#72C0C0" transform="translate(433,75)"/>
<path d="M0 0 C2.5 2.3125 2.5 2.3125 5 5 C5 5.99 5 6.98 5 8 C5.66 8 6.32 8 7 8 C7.33 9.65 7.66 11.3 8 13 C6.62437146 11.71034824 5.29233607 10.37310707 4 9 C4 8.34 4 7.68 4 7 C3.01 7 2.02 7 1 7 C0.67 4.69 0.34 2.38 0 0 Z " fill="#AE2223" transform="translate(139,24)"/>
<path d="M0 0 C1.32 0 2.64 0 4 0 C4 0.66 4 1.32 4 2 C4.928125 2.2475 5.85625 2.495 6.8125 2.75 C10.16458325 4.06454245 11.1877803 4.97963384 13 8 C11.35 8 9.7 8 8 8 C8 7.01 8 6.02 8 5 C7.01 5 6.02 5 5 5 C5 4.34 5 3.68 5 3 C3.35 2.67 1.7 2.34 0 2 C0 1.34 0 0.68 0 0 Z " fill="#B51E1E" transform="translate(124,14)"/>
<path d="M0 0 C0.66 0 1.32 0 2 0 C1.51421457 3.12290635 1.0013988 5.99580359 0 9 C-2.0625 10.1875 -2.0625 10.1875 -4 11 C-3.5247412 9.35303396 -3.04468109 7.70745272 -2.5625 6.0625 C-2.29566406 5.14597656 -2.02882813 4.22945313 -1.75390625 3.28515625 C-1 1 -1 1 0 0 Z " fill="#299396" transform="translate(351,449)"/>
<path d="M0 0 C-2.41407698 1.60938465 -4.34044437 2.65490738 -7 3.6875 C-7.680625 3.95949219 -8.36125 4.23148438 -9.0625 4.51171875 C-11 5 -11 5 -14 4 C-13.34 4 -12.68 4 -12 4 C-12 3.34 -12 2.68 -12 2 C-10.56656 1.46809459 -9.12804633 0.94984742 -7.6875 0.4375 C-6.48673828 0.00244141 -6.48673828 0.00244141 -5.26171875 -0.44140625 C-3 -1 -3 -1 0 0 Z " fill="#41A6A1" transform="translate(368,246)"/>
<path d="M0 0 C-3.69172595 3.53790403 -7.09390595 3.59115883 -12 4 C-8.66437635 0.13769893 -4.98576775 -1.84658065 0 0 Z " fill="#3B9B9A" transform="translate(397,512)"/>
<path d="M0 0 C1.32 0 2.64 0 4 0 C4.28875 0.598125 4.5775 1.19625 4.875 1.8125 C6.04742026 4.19327792 6.04742026 4.19327792 8 7 C7.67 7.99 7.34 8.98 7 10 C6.01524786 8.90081184 5.03739527 7.7954398 4.0625 6.6875 C3.51722656 6.07261719 2.97195312 5.45773437 2.41015625 4.82421875 C1 3 1 3 0 0 Z " fill="#329A9C" transform="translate(103,502)"/>
<path d="M0 0 C0.33 0 0.66 0 1 0 C1.36263859 5.8022175 0.25684543 9.63999211 -2 15 C-3.08073852 11.75778445 -3.21676408 9.39597063 -3 6 C-2.34 5.34 -1.68 4.68 -1 4 C-0.3574765 1.93125966 -0.3574765 1.93125966 0 0 Z " fill="#52ABB0" transform="translate(146,454)"/>
<path d="M0 0 C0 0.33 0 0.66 0 1 C-1.155 1.103125 -2.31 1.20625 -3.5 1.3125 C-6.69077268 1.69289461 -9.39434924 2.42946426 -12.375 3.625 C-13.57125 4.07875 -14.7675 4.5325 -16 5 C-16.66 4.67 -17.32 4.34 -18 4 C-11.72912263 0.28392452 -7.24539726 -0.53449652 0 0 Z " fill="#59A8AD" transform="translate(243,458)"/>
<path d="M0 0 C3.83345405 2.78796658 4.22497639 6.5612284 5 11 C4.34 11.66 3.68 12.32 3 13 C2.29819469 11.5903653 1.61406042 10.17192359 0.9375 8.75 C0.55464844 7.96109375 0.17179687 7.1721875 -0.22265625 6.359375 C-1.08564091 3.74006478 -0.93045933 2.55144824 0 0 Z " fill="#45A7A8" transform="translate(70,417)"/>
<path d="M0 0 C0.33 0 0.66 0 1 0 C0.91266424 1.60517097 0.80447776 3.20921662 0.6875 4.8125 C0.62949219 5.70582031 0.57148438 6.59914063 0.51171875 7.51953125 C-0.07443459 10.36080887 -0.79850491 11.18988181 -3 13 C-3.66 13.66 -4.32 14.32 -5 15 C-4.37321829 11.33827525 -3.35548154 8.1181005 -1.9375 4.6875 C-1.39416016 3.36298828 -1.39416016 3.36298828 -0.83984375 2.01171875 C-0.56269531 1.34785156 -0.28554688 0.68398438 0 0 Z " fill="#72BEBE" transform="translate(331,496)"/>
<path d="M0 0 C0.33 0.99 0.66 1.98 1 3 C0.34 3 -0.32 3 -1 3 C-1.04898437 3.59167969 -1.09796875 4.18335938 -1.1484375 4.79296875 C-1.56456867 9.19104472 -2.04965595 12.96928897 -4 17 C-5.0625 15.125 -5.0625 15.125 -6 13 C-5.67 12.34 -5.34 11.68 -5 11 C-4.34 11 -3.68 11 -3 11 C-2.95101563 10.37351562 -2.90203125 9.74703125 -2.8515625 9.1015625 C-2.73941406 7.87566406 -2.73941406 7.87566406 -2.625 6.625 C-2.55539062 5.81289063 -2.48578125 5.00078125 -2.4140625 4.1640625 C-2 2 -2 2 0 0 Z " fill="#0F888C" transform="translate(378,476)"/>
<path d="M0 0 C1.37298404 4.11895212 0.41694353 6.68960604 -0.875 10.75 C-1.24625 11.4925 -1.6175 12.235 -2 13 C-2.99 13.33 -3.98 13.66 -5 14 C-3.45730076 9.27934033 -1.92205381 4.58335908 0 0 Z " fill="#56ADB1" transform="translate(397,451)"/>
<path d="M0 0 C0.99 0 1.98 0 3 0 C2.37321829 3.66172475 1.35548154 6.8818995 -0.0625 10.3125 C-0.42472656 11.19550781 -0.78695313 12.07851563 -1.16015625 12.98828125 C-1.43730469 13.65214844 -1.71445312 14.31601562 -2 15 C-3.07021121 11.35977454 -2.72344899 10.35115081 -1 7 C-0.61250787 4.67504723 -0.27017161 2.34148732 0 0 Z " fill="#4A9FA2" transform="translate(385,457)"/>
<path d="M0 0 C2.9719385 1.12451727 5.33440687 2.22293791 8 4 C8.1875 6.625 8.1875 6.625 8 9 C7.34 9 6.68 9 6 9 C4.4921875 7.03125 4.4921875 7.03125 2.875 4.5 C2.33617187 3.6646875 1.79734375 2.829375 1.2421875 1.96875 C0.83226562 1.3190625 0.42234375 0.669375 0 0 Z " fill="#0C9091" transform="translate(245,287)"/>
<path d="M0 0 C2.375 0.4375 2.375 0.4375 5 2 C6.07001562 4.94119871 6.57343918 7.90584243 7 11 C4.0444623 8.24829249 1.88436685 5.58029701 0 2 C0 1.34 0 0.68 0 0 Z " fill="#6CBEBD" transform="translate(29,210)"/>
<path d="M0 0 C0.66 0 1.32 0 2 0 C2.33 1.32 2.66 2.64 3 4 C3.61875 4.061875 4.2375 4.12375 4.875 4.1875 C7 5 7 5 8.1875 7.4375 C8.455625 8.283125 8.72375 9.12875 9 10 C9.33 10.66 9.66 11.32 10 12 C6.34226097 10.54485599 4.84220298 8.72902136 2.75 5.4375 C1.96882813 4.22900391 1.96882813 4.22900391 1.171875 2.99609375 C0 1 0 1 0 0 Z " fill="#3EA3A0" transform="translate(22,199)"/>
<path d="M0 0 C2.31 1.98 4.62 3.96 7 6 C6.67 6.66 6.34 7.32 6 8 C5.236875 7.835 4.47375 7.67 3.6875 7.5 C0.96403764 6.90854604 0.96403764 6.90854604 -2 7 C-1.67 6.34 -1.34 5.68 -1 5 C-0.34 5 0.32 5 1 5 C0.67 3.35 0.34 1.7 0 0 Z " fill="#35A7A5" transform="translate(419,56)"/>
<path d="M0 0 C0.33 0 0.66 0 1 0 C1.28571429 8.57142857 1.28571429 8.57142857 -1 12 C-1.66 11.67 -2.32 11.34 -3 11 C-2.53199289 6.94393835 -2.12046792 3.53411321 0 0 Z " fill="#E95C5B" transform="translate(68,32)"/>
<path d="M0 0 C0.33 0 0.66 0 1 0 C0.46148032 5.27749285 -0.77343836 9.25645564 -3 14 C-3.66 13.67 -4.32 13.34 -5 13 C-4.35780498 11.01964979 -3.71114356 9.04074744 -3.0625 7.0625 C-2.70285156 5.96035156 -2.34320313 4.85820312 -1.97265625 3.72265625 C-1 1 -1 1 0 0 Z " fill="#128689" transform="translate(399,423)"/>
<path d="M0 0 C1.98 0 3.96 0 6 0 C6.33 1.98 6.66 3.96 7 6 C6.01 6 5.02 6 4 6 C1.8125 3 1.8125 3 0 0 Z " fill="#41AAA8" transform="translate(302,361)"/>
<path d="M0 0 C1.32 0.66 2.64 1.32 4 2 C3.34 2 2.68 2 2 2 C2.33 2.99 2.66 3.98 3 5 C1.6875 7.6875 1.6875 7.6875 0 10 C-0.66 10 -1.32 10 -2 10 C-1.34 6.7 -0.68 3.4 0 0 Z " fill="#51AFB0" transform="translate(361,136)"/>
<path d="M0 0 C1.32 0 2.64 0 4 0 C4 0.66 4 1.32 4 2 C5.32 2 6.64 2 8 2 C9.75 3.375 9.75 3.375 11 5 C11 5.66 11 6.32 11 7 C6.00724943 5.72278474 3.42388092 3.82669043 0 0 Z " fill="#DE6B68" transform="translate(76,82)"/>
<path d="M0 0 C0.99 0 1.98 0 3 0 C1.64978174 4.41889613 -0.26115668 6.34345343 -4 9 C-3.67 7.35 -3.34 5.7 -3 4 C-2.01 3.67 -1.02 3.34 0 3 C0 2.01 0 1.02 0 0 Z " fill="#4FA8AD" transform="translate(135,480)"/>
<path d="M0 0 C2 3 2 3 1.625 5.6875 C1.41875 6.450625 1.2125 7.21375 1 8 C0.01 8.33 -0.98 8.66 -2 9 C-2 6.36 -2 3.72 -2 1 C-1.34 0.67 -0.68 0.34 0 0 Z " fill="#3BA0AA" transform="translate(203,478)"/>
<path d="M0 0 C0.99 0 1.98 0 3 0 C2.67 2.31 2.34 4.62 2 7 C1.01 7 0.02 7 -1 7 C-2 4 -2 4 -1.0625 1.8125 C-0.5365625 0.9153125 -0.5365625 0.9153125 0 0 Z " fill="#049494" transform="translate(236,461)"/>
<path d="M0 0 C-0.66 1.98 -1.32 3.96 -2 6 C-3.32 5.34 -4.64 4.68 -6 4 C-6 3.01 -6 2.02 -6 1 C-4 0 -4 0 0 0 Z " fill="#2F989E" transform="translate(425,413)"/>
<path d="M0 0 C3.3 0 6.6 0 10 0 C10 0.33 10 0.66 10 1 C7.69 1 5.38 1 3 1 C3 2.98 3 4.96 3 7 C1.5 5.75 1.5 5.75 0 4 C0 2.68 0 1.36 0 0 Z " fill="#3F9B9A" transform="translate(67,412)"/>
<path d="M0 0 C4.29 0 8.58 0 13 0 C13 0.66 13 1.32 13 2 C13.66 2.33 14.32 2.66 15 3 C9.9697924 2.47462276 4.98114761 1.89405214 0 1 C0 0.67 0 0.34 0 0 Z " fill="#6A3F3F" transform="translate(106,9)"/>
<path d="M0 0 C3.39914975 1.13304992 4.05254451 2.12518475 6 5 C4.68 5.33 3.36 5.66 2 6 C1.34 4.02 0.68 2.04 0 0 Z M5 0 C5.99 0.33 6.98 0.66 8 1 C8 1.99 8 2.98 8 4 C7.34 4 6.68 4 6 4 C5.67 2.68 5.34 1.36 5 0 Z " fill="#088C92" transform="translate(101,496)"/>
<path d="M0 0 C0.99 0 1.98 0 3 0 C2.54917531 1.46067199 2.08906463 2.91848032 1.625 4.375 C1.36976563 5.18710937 1.11453125 5.99921875 0.8515625 6.8359375 C0 9 0 9 -2 11 C-2 9.02 -2 7.04 -2 5 C-1.34 5 -0.68 5 0 5 C0 3.35 0 1.7 0 0 Z " fill="#409FA1" transform="translate(422,476)"/>
<path d="M0 0 C2.96404505 2.80804268 5.44499019 5.18315774 7 9 C4.28902773 8.62607279 3.17999533 8.18642373 1.25 6.1875 C0 4 0 4 0 0 Z " fill="#63BABA" transform="translate(371,308)"/>
<path d="M0 0 C-3.20336822 2.83374881 -5.78087253 3.5205537 -10 4 C-9.67 3.01 -9.34 2.02 -9 1 C-5.8035914 -0.06546953 -3.34252724 -0.07427838 0 0 Z " fill="#38A8A7" transform="translate(379,241)"/>
<path d="M0 0 C0.33 0 0.66 0 1 0 C0.25 7.75 0.25 7.75 -2 10 C-2.79953138 6.71303767 -3.09658936 5.28976808 -2 2 C-1.34 2 -0.68 2 0 2 C0 1.34 0 0.68 0 0 Z " fill="#3FA0A3" transform="translate(194,503)"/>
<path d="M0 0 C0.66 0 1.32 0 2 0 C1.67 1.65 1.34 3.3 1 5 C0.34 5 -0.32 5 -1 5 C-1.12375 5.78375 -1.2475 6.5675 -1.375 7.375 C-2 10 -2 10 -4 12 C-3.33501617 7.61110675 -1.81242323 4.0188515 0 0 Z " fill="#4EA9AC" transform="translate(166,501)"/>
<path d="M0 0 C0 3 0 3 -1.3125 4.60546875 C-1.869375 5.12753906 -2.42625 5.64960938 -3 6.1875 C-3.556875 6.71730469 -4.11375 7.24710937 -4.6875 7.79296875 C-5.120625 8.19128906 -5.55375 8.58960938 -6 9 C-6.66 8.67 -7.32 8.34 -8 8 C-5.92856799 3.96615872 -4.03384128 2.07143201 0 0 Z " fill="#72C1C7" transform="translate(232,483)"/>
<path d="M0 0 C0.99 0 1.98 0 3 0 C2.01 2.97 1.02 5.94 0 9 C-0.66 8.01 -1.32 7.02 -2 6 C-1.125 2.8125 -1.125 2.8125 0 0 Z " fill="#228C8E" transform="translate(148,448)"/>
<path d="M0 0 C1.53224072 2.43355879 2.03344238 3.65721564 1.75 6.5625 C1 9 1 9 -1 12 C-1.02698189 10.37509046 -1.04638757 8.75005367 -1.0625 7.125 C-1.07410156 6.22007812 -1.08570313 5.31515625 -1.09765625 4.3828125 C-1 2 -1 2 0 0 Z " fill="#4DABAD" transform="translate(349,428)"/>
<path d="M0 0 C0.99 0.33 1.98 0.66 3 1 C3 1.99 3 2.98 3 4 C3.99 4 4.98 4 6 4 C6.33 6.31 6.66 8.62 7 11 C5.66104368 9.33784732 4.32869858 7.67036393 3 6 C2.4225 5.278125 1.845 4.55625 1.25 3.8125 C0 2 0 2 0 0 Z " fill="#5FB5B6" transform="translate(15,188)"/>
<path d="M0 0 C1.32 1.32 2.64 2.64 4 4 C1.69 4.66 -0.62 5.32 -3 6 C-3 4.68 -3 3.36 -3 2 C-2.34 2 -1.68 2 -1 2 C-0.67 1.34 -0.34 0.68 0 0 Z " fill="#1C9B9B" transform="translate(413,49)"/>
<path d="M0 0 C0.66 0.33 1.32 0.66 2 1 C0.90931332 4.77545388 0.0916909 7.47043472 -3 10 C-3 8.35 -3 6.7 -3 5 C-2.34 5 -1.68 5 -1 5 C-0.67 3.35 -0.34 1.7 0 0 Z " fill="#3D9B9E" transform="translate(418,486)"/>
<path d="M0 0 C1.09658936 3.28976808 0.79953138 4.71303767 0 8 C-0.66 8 -1.32 8 -2 8 C-1.67 9.32 -1.34 10.64 -1 12 C-1.99 12 -2.98 12 -4 12 C-3.52309796 10.37433394 -3.04340334 8.74948689 -2.5625 7.125 C-2.29566406 6.22007812 -2.02882812 5.31515625 -1.75390625 4.3828125 C-1 2 -1 2 0 0 Z " fill="#84C9CE" transform="translate(240,482)"/>
<path d="M0 0 C0.66 0 1.32 0 2 0 C1.56179109 4.55737263 1.14958831 7.57653445 -2 11 C-1 3.57142857 -1 3.57142857 0 0 Z " fill="#12888B" transform="translate(339,452)"/>
<path d="M0 0 C0.66 0 1.32 0 2 0 C2.33 1.32 2.66 2.64 3 4 C1.02 5.32 -0.96 6.64 -3 8 C-3.66 7.67 -4.32 7.34 -5 7 C-4.34 6.01 -3.68 5.02 -3 4 C-2.34 4 -1.68 4 -1 4 C-0.67 2.68 -0.34 1.36 0 0 Z " fill="#138C91" transform="translate(307,449)"/>
<path d="M0 0 C1.32 0 2.64 0 4 0 C4.33 0.99 4.66 1.98 5 3 C4.01 3.99 3.02 4.98 2 6 C1.01 5.34 0.02 4.68 -1 4 C-0.67 2.68 -0.34 1.36 0 0 Z " fill="#219598" transform="translate(444,416)"/>
<path d="M0 0 C0.99 0.99 1.98 1.98 3 3 C2.01 5.97 1.02 8.94 0 12 C-0.33 12 -0.66 12 -1 12 C-0.67 8.04 -0.34 4.08 0 0 Z " fill="#5EB0B2" transform="translate(401,416)"/>
<path d="M0 0 C2.375 0.25 2.375 0.25 5 1 C6.375 2.875 6.375 2.875 7 5 C6.67 5.99 6.34 6.98 6 8 C4.02 5.36 2.04 2.72 0 0 Z " fill="#49A9A9" transform="translate(284,338)"/>
<path d="M0 0 C2.31 0 4.62 0 7 0 C4.53846154 3.81538462 4.53846154 3.81538462 1.8125 4.75 C1.214375 4.8325 0.61625 4.915 0 5 C0 3.35 0 1.7 0 0 Z " fill="#3EAAAB" transform="translate(400,222)"/>
<path d="M0 0 C1.485 0.99 1.485 0.99 3 2 C3.1875 5.625 3.1875 5.625 3 9 C0.11749016 6.61879622 -0.61038985 4.70129644 -1 1 C-0.67 0.67 -0.34 0.34 0 0 Z " fill="#E45659" transform="translate(68,66)"/>
<path d="M0 0 C-0.62759865 2.92879371 -1.58622659 5.36095629 -3 8 C-3.66 8 -4.32 8 -5 8 C-4.74438677 5.6568787 -4.40729228 3.32156597 -4 1 C-2 0 -2 0 0 0 Z " fill="#0A8C8E" transform="translate(425,473)"/>
<path d="M0 0 C0.66 0.33 1.32 0.66 2 1 C1.43454163 4.95820859 0.19097652 7.6659053 -2 11 C-3.125 7.25 -3.125 7.25 -2 5 C-1.34 5 -0.68 5 0 5 C0 3.35 0 1.7 0 0 Z " fill="#1F8484" transform="translate(237,468)"/>
<path d="M0 0 C1 2 1 2 0.25 5.0625 C-0.1625 6.031875 -0.575 7.00125 -1 8 C-1.99 8.33 -2.98 8.66 -4 9 C-3.46930939 5.17902761 -2.50298434 2.93828597 0 0 Z " fill="#38999D" transform="translate(219,467)"/>
<path d="M0 0 C0.66 0.33 1.32 0.66 2 1 C0.1875 3 0.1875 3 -2 5 C-5 5 -5 5 -7 4 C-4.61426621 2.10786631 -2.92824652 0.97608217 0 0 Z " fill="#2D969D" transform="translate(227,462)"/>
<path d="M0 0 C0.33 0.66 0.66 1.32 1 2 C-1.16798732 7.4770206 -1.16798732 7.4770206 -4.1875 9.375 C-4.785625 9.58125 -5.38375 9.7875 -6 10 C-4.6302836 6.00499382 -2.74277578 3.19990508 0 0 Z " fill="#4FA9AC" transform="translate(173,418)"/>
<path d="M0 0 C0.33 0 0.66 0 1 0 C1.375 2.1875 1.375 2.1875 1 5 C-0.83961648 6.99022836 -2.79186148 8.38989899 -5 10 C-5 9.01 -5 8.02 -5 7 C-4.01 6.34 -3.02 5.68 -2 5 C-0.79549696 2.44816596 -0.79549696 2.44816596 0 0 Z " fill="#0B8C90" transform="translate(173,420)"/>
<path d="M0 0 C4.875 4.75 4.875 4.75 6 7 C3.03 6.505 3.03 6.505 0 6 C0 4.02 0 2.04 0 0 Z " fill="#40A8AE" transform="translate(411,360)"/>
<path d="M0 0 C1.65 0 3.3 0 5 0 C5.33 2.31 5.66 4.62 6 7 C1.125 2.25 1.125 2.25 0 0 Z " fill="#349FA0" transform="translate(255,301)"/>
<path d="M0 0 C1.875 0.75 1.875 0.75 2.875 2.75 C0.235 3.08 -2.405 3.41 -5.125 3.75 C-5.125 3.09 -5.125 2.43 -5.125 1.75 C-2.125 -0.25 -2.125 -0.25 0 0 Z " fill="#3AA3A8" transform="translate(351.125,249.25)"/>
<path d="M0 0 C0.99 0.33 1.98 0.66 3 1 C3 1.66 3 2.32 3 3 C3.66 3 4.32 3 5 3 C5.33 2.01 5.66 1.02 6 0 C6.66 0 7.32 0 8 0 C7.3125 1.9375 7.3125 1.9375 6 4 C3.375 4.75 3.375 4.75 1 5 C0.67 3.35 0.34 1.7 0 0 Z " fill="#1F989B" transform="translate(411,209)"/>
<path d="M0 0 C-0.25 1.875 -0.25 1.875 -1 4 C-3.0625 5.25 -3.0625 5.25 -5 6 C-5.66 5.34 -6.32 4.68 -7 4 C-6.34 4 -5.68 4 -5 4 C-5 3.34 -5 2.68 -5 2 C-2 0 -2 0 0 0 Z " fill="#20878D" transform="translate(139,82)"/>
<path d="M0 0 C3.96 1.98 3.96 1.98 8 4 C6 5 4 6 2 7 C1.855625 6.401875 1.71125 5.80375 1.5625 5.1875 C1.1127561 3.43849596 0.57107659 1.71322977 0 0 Z " fill="#3EA6A6" transform="translate(376,22)"/>
<path d="M0 0 C0.97608217 2.92824652 1.08226668 4.95613276 1 8 C-0.98 8.99 -0.98 8.99 -3 10 C-2.39009109 6.44219804 -1.4216319 3.3171411 0 0 Z " fill="#72BFBF" transform="translate(387,475)"/>
<path d="M0 0 C0.33 0.66 0.66 1.32 1 2 C1.66 2 2.32 2 3 2 C2.67 2.99 2.34 3.98 2 5 C0.67696283 5.3721042 -0.65737935 5.70630173 -2 6 C-2.33 6.66 -2.66 7.32 -3 8 C-3 7.01 -3 6.02 -3 5 C-2.34 5 -1.68 5 -1 5 C-0.67 3.35 -0.34 1.7 0 0 Z " fill="#088E91" transform="translate(396,459)"/>
<path d="M0 0 C0.33 0 0.66 0 1 0 C1 1.98 1 3.96 1 6 C0.01 6.33 -0.98 6.66 -2 7 C-2.73323796 9.01508358 -2.73323796 9.01508358 -3 11 C-3.33 10.34 -3.66 9.68 -4 9 C-3.22265625 6.8359375 -3.22265625 6.8359375 -2.0625 4.375 C-1.68222656 3.55773437 -1.30195313 2.74046875 -0.91015625 1.8984375 C-0.60980469 1.27195312 -0.30945313 0.64546875 0 0 Z " fill="#49A2A5" transform="translate(403,437)"/>
<path d="M0 0 C-2.90092502 1.93395001 -3.89674737 2.30131941 -7.1875 2.625 C-8.445625 2.74875 -9.70375 2.8725 -11 3 C-8.21756596 -1.17365106 -4.53441502 -0.22300402 0 0 Z " fill="#5BB2B3" transform="translate(381,413)"/>
<path d="M0 0 C2.12038635 2.61514317 4.13091744 5.19637616 6 8 C5.01 8.495 5.01 8.495 4 9 C1.43135272 7.71567636 1.053461 6.63365249 0 4 C0 2.68 0 1.36 0 0 Z " fill="#319F9B" transform="translate(351,283)"/>
<path d="M0 0 C0.66 0.33 1.32 0.66 2 1 C1.67 3.31 1.34 5.62 1 8 C0.01 8 -0.98 8 -2 8 C-1.125 2.25 -1.125 2.25 0 0 Z " fill="#479A9C" transform="translate(230,508)"/>
<path d="M0 0 C0.99 0.99 1.98 1.98 3 3 C2.8125 5.625 2.8125 5.625 2 8 C1.01 8.495 1.01 8.495 0 9 C0 6.03 0 3.06 0 0 Z " fill="#0F8586" transform="translate(115,497)"/>
<path d="M0 0 C0.66 0 1.32 0 2 0 C1.74438677 2.3431213 1.40729228 4.67843403 1 7 C0.01 7.495 0.01 7.495 -1 8 C-1.125 2.25 -1.125 2.25 0 0 Z " fill="#2F9497" transform="translate(333,492)"/>
<path d="M0 0 C0.66 0 1.32 0 2 0 C1.67 1.65 1.34 3.3 1 5 C0.34 5 -0.32 5 -1 5 C-1.33 6.32 -1.66 7.64 -2 9 C-2.33 8.34 -2.66 7.68 -3 7 C-2.06421005 4.64018187 -1.06652192 2.30368736 0 0 Z " fill="#55ABAC" transform="translate(342,470)"/>
<path d="M0 0 C0.66 0.99 1.32 1.98 2 3 C1.01 4.98 0.02 6.96 -1 9 C-1.33 9 -1.66 9 -2 9 C-1.125 2.25 -1.125 2.25 0 0 Z " fill="#298C8E" transform="translate(406,430)"/>
<path d="M0 0 C0.99 0.33 1.98 0.66 3 1 C3.6875 3.0625 3.6875 3.0625 4 5 C3.01 5.495 3.01 5.495 2 6 C2 5.34 2 4.68 2 4 C0.68 4 -0.64 4 -2 4 C-2 3.34 -2 2.68 -2 2 C-1.34 2 -0.68 2 0 2 C0 1.34 0 0.68 0 0 Z " fill="#3A999A" transform="translate(155,412)"/>
<path d="M0 0 C2.0625 1.75 2.0625 1.75 4 4 C3.75 6.25 3.75 6.25 3 8 C0.37613513 4.93882432 0 4.26826873 0 0 Z " fill="#11938F" transform="translate(35,215)"/>
<path d="M0 0 C6.625 0.75 6.625 0.75 10 3 C8.72125 3.061875 7.4425 3.12375 6.125 3.1875 C5.40570313 3.22230469 4.68640625 3.25710937 3.9453125 3.29296875 C3.30335938 3.19628906 2.66140625 3.09960938 2 3 C1.34 2.01 0.68 1.02 0 0 Z " fill="#53B1AD" transform="translate(350,13)"/>
<path d="M0 0 C0.99 0.33 1.98 0.66 3 1 C3.625 3.875 3.625 3.875 4 7 C3.34 7.66 2.68 8.32 2 9 C1.34 6.03 0.68 3.06 0 0 Z " fill="#379E9F" transform="translate(86,459)"/>
<path d="M0 0 C0.66 0.66 1.32 1.32 2 2 C1.8125 5 1.8125 5 1 8 C0.01 8.66 -0.98 9.32 -2 10 C-1.649375 9.236875 -1.29875 8.47375 -0.9375 7.6875 C0.32360884 4.95240621 0.32360884 4.95240621 -1 2 C-0.67 1.34 -0.34 0.68 0 0 Z " fill="#0B888C" transform="translate(267,418)"/>
<path d="M0 0 C1.0326802 2.78823655 1.04509293 3.8677274 0.0625 6.75 C-0.288125 7.4925 -0.63875 8.235 -1 9 C-1.33 9 -1.66 9 -2 9 C-2 6.36 -2 3.72 -2 1 C-1.34 0.67 -0.68 0.34 0 0 Z " fill="#69B6B6" transform="translate(261,412)"/>
<path d="M0 0 C0.66 0 1.32 0 2 0 C2.33 1.32 2.66 2.64 3 4 C-0.3 4 -3.6 4 -7 4 C-7 3.67 -7 3.34 -7 3 C-4.69 3 -2.38 3 0 3 C0 2.01 0 1.02 0 0 Z " fill="#2B8D8E" transform="translate(441,399)"/>
<path d="M0 0 C1.65 1.65 3.3 3.3 5 5 C4.34 5.66 3.68 6.32 3 7 C1.5 5.75 1.5 5.75 0 4 C0 2.68 0 1.36 0 0 Z " fill="#55B0B3" transform="translate(401,347)"/>
</svg>
